<?xml version="1.0" encoding="utf-8"?>
<svg version="1.1" xmlns:xlink="http://www.w3.org/1999/xlink" width="9px" height="9px" xmlns="http://www.w3.org/2000/svg">
  <g transform="matrix(1 0 0 1 -57 -208 )">
    <path d="M 8.69530263157895 3.42681081081082  C 8.75498684210527 3.37937837837836  8.77807894736841 3.29728378378377  8.75356578947367 3.22394594594596  C 8.72834210526315 3.15060810810809  8.66119736842106 3.10135135135135  8.58552631578948 3.10135135135135  L 5.69155263157896 3.10135135135135  L 4.66768421052632 0.121864864864847  C 4.6421052631579 0.0488918918919126  4.57496052631579 0  4.5 0  C 4.42432894736842 0  4.35753947368421 0.0488918918919126  4.33231578947368 0.121864864864847  L 3.30844736842106 3.10135135135135  L 0.41447368421052 3.10135135135135  C 0.338802631578943 3.10135135135135  0.271302631578948 3.15060810810809  0.246434210526317 3.22394594594596  C 0.221210526315787 3.29728378378377  0.245013157894732 3.37937837837836  0.304697368421046 3.4271756756757  L 2.69313157894737 5.35475675675673  L 1.66677631578948 8.51667567567569  C 1.64226315789473 8.59220270270271  1.66819736842105 8.67575675675675  1.73072368421053 8.72209459459458  C 1.79325 8.76879729729728  1.87780263157894 8.76879729729728  1.94032894736841 8.72172972972976  L 4.5 6.79378378378379  L 7.05931578947369 8.721  C 7.09057894736841 8.74544594594596  7.12752631578948 8.75675675675677  7.16447368421052 8.75675675675677  C 7.20142105263159 8.75675675675677  7.23765789473686 8.74544594594596  7.26892105263158 8.72172972972976  C 7.33180263157894 8.67466216216218  7.35738157894735 8.59220270270271  7.33322368421054 8.51631081081081  L 6.30651315789473 5.35439189189191  L 8.69530263157895 3.42681081081082  Z " fill-rule="nonzero" fill="#000000" stroke="none" transform="matrix(1 0 0 1 57 208 )" />
  </g>
</svg>