<?xml version="1.0" encoding="utf-8"?>
<svg version="1.1" xmlns:xlink="http://www.w3.org/1999/xlink" width="9px" height="9px" xmlns="http://www.w3.org/2000/svg">
  <g transform="matrix(1 0 0 1 -97 -208 )">
    <path d="M 8.69530263157895 3.4271756756757  C 8.75498684210527 3.37937837837836  8.77807894736841 3.29764864864865  8.75356578947367 3.22431081081083  C 8.72834210526315 3.15060810810809  8.66119736842106 3.10135135135135  8.58552631578948 3.10135135135135  L 5.69155263157896 3.10135135135135  L 4.66803947368422 0.121864864864847  C 4.61794736842106 -0.0240810810810785  4.38276315789474 -0.0240810810810785  4.33302631578948 0.121864864864847  L 3.30844736842104 3.10135135135135  L 0.41447368421052 3.10135135135135  C 0.338802631578943 3.10135135135135  0.271302631578948 3.15060810810809  0.246434210526303 3.22431081081083  C 0.221921052631586 3.29764864864865  0.245013157894732 3.37937837837836  0.304697368421046 3.42754054054052  L 2.69313157894737 5.35475675675679  L 1.66677631578946 8.51667567567569  C 1.64261842105265 8.59220270270271  1.66819736842106 8.675027027027  1.73072368421052 8.72209459459458  C 1.79325 8.76843243243241  1.87815789473683 8.76879729729728  1.94068421052631 8.72136486486488  L 4.5 6.79378378378379  L 7.05931578947369 8.721  C 7.09057894736841 8.74508108108108  7.12752631578948 8.75675675675677  7.16447368421052 8.75675675675677  C 7.20142105263159 8.75675675675677  7.23801315789473 8.74508108108108  7.26927631578948 8.7217297297297  C 7.33180263157894 8.67466216216218  7.35738157894738 8.59220270270271  7.33322368421054 8.51631081081081  L 6.30686842105263 5.35439189189191  L 8.69530263157895 3.4271756756757  Z M 8.07217105263157 3.4662162162162  L 5.98890789473685 5.14641891891893  C 5.92993421052631 5.1942162162162  5.90648684210527 5.27521621621622  5.92993421052631 5.34818918918921  L 6.81951315789473 8.08832432432433  L 4.60515789473683 6.42089189189187  C 4.57389473684211 6.39681081081079  4.53694736842104 6.38513513513516  4.5 6.38513513513516  C 4.46305263157896 6.38513513513516  4.42610526315789 6.39681081081079  4.39484210526317 6.42089189189187  L 2.18048684210527 8.08832432432433  L 3.07006578947369 5.34818918918921  C 3.09351315789473 5.27521621621622  3.07006578947369 5.1942162162162  3.01109210526315 5.14641891891893  L 0.927828947368425 3.4662162162162  L 3.43421052631578 3.4662162162162  C 3.50952631578949 3.4662162162162  3.57667105263158 3.41732432432434  3.6018947368421 3.34435135135135  L 4.5 0.730459459459439  L 5.39775 3.34435135135135  C 5.42368421052632 3.41732432432434  5.49047368421051 3.4662162162162  5.56578947368422 3.4662162162162  L 8.07217105263157 3.4662162162162  Z " fill-rule="nonzero" fill="#000000" stroke="none" transform="matrix(1 0 0 1 97 208 )" />
  </g>
</svg>