<?xml version="1.0" encoding="utf-8"?>
<svg version="1.1" xmlns:xlink="http://www.w3.org/1999/xlink" width="155px" height="50px" xmlns="http://www.w3.org/2000/svg">
  <g transform="matrix(1 0 0 1 -16 -208 )">
    <path d="M 16 208  L 171 208  L 171 258  L 16 258  L 16 208  " fill-rule="nonzero" fill="#cccccc" stroke="none" />
    <path d="M 20 212  L 167 212  L 167 254  L 20 254  L 20 212  " fill-rule="nonzero" fill="#ffffff" stroke="none" />
    <path d="M 100.35 223  C 98.25 223  96.6 221.35  96.6 219.25  C 96.6 217.15  98.25 215.5  100.35 215.5  C 102.45 215.5  104.1 217.15  104.1 219.25  C 104.1 221.35  102.45 223  100.35 223  " fill-rule="nonzero" fill="#cccccc" stroke="none" />
    <path d="M 22 253  L 22 231.55  L 58 221.8  L 108.4 245.451612903226  L 137.2 227.65  L 166 245.451612903226  L 166 253  L 22 253  " fill-rule="nonzero" fill="#169bd5" stroke="none" />
  </g>
</svg>