<?xml version="1.0" encoding="utf-8"?>
<svg version="1.1" xmlns:xlink="http://www.w3.org/1999/xlink" width="10px" height="10px" xmlns="http://www.w3.org/2000/svg">
  <g transform="matrix(1 0 0 1 -37 -724 )">
    <path d="M 7.5 4.64192708333333  C 7.63888888888889 4.72005208333333  7.70833333333333 4.83940972222222  7.70833333333333 5  C 7.70833333333333 5.16059027777778  7.63888888888889 5.27994791666667  7.5 5.35807291666667  L 3.95833333333333 7.44140625  C 3.89322916666667 7.48046875  3.82378472222222 7.5  3.75 7.5  C 3.68055555555556 7.5  3.61111111111111 7.48263888888889  3.54166666666667 7.44791666666667  C 3.40277777777778 7.36545138888889  3.33333333333333 7.24392361111111  3.33333333333333 7.08333333333333  L 3.33333333333333 2.91666666666667  C 3.33333333333333 2.75607638888889  3.40277777777778 2.63454861111111  3.54166666666667 2.55208333333333  C 3.68489583333333 2.47395833333333  3.82378472222222 2.47612847222222  3.95833333333333 2.55859375  L 7.5 4.64192708333333  Z M 8.06640625 6.77734375  C 8.38324652777778 6.23480902777778  8.54166666666667 5.64236111111111  8.54166666666667 5  C 8.54166666666667 4.35763888888889  8.38324652777778 3.76519097222222  8.06640625 3.22265625  C 7.74956597222222 2.68012152777778  7.31987847222222 2.25043402777778  6.77734375 1.93359375  C 6.23480902777778 1.61675347222222  5.64236111111111 1.45833333333333  5 1.45833333333333  C 4.35763888888889 1.45833333333333  3.76519097222222 1.61675347222222  3.22265625 1.93359375  C 2.68012152777778 2.25043402777778  2.25043402777778 2.68012152777778  1.93359375 3.22265625  C 1.61675347222222 3.76519097222222  1.45833333333333 4.35763888888889  1.45833333333333 5  C 1.45833333333333 5.64236111111111  1.61675347222222 6.23480902777778  1.93359375 6.77734375  C 2.25043402777778 7.31987847222222  2.68012152777778 7.74956597222222  3.22265625 8.06640625  C 3.76519097222222 8.38324652777778  4.35763888888889 8.54166666666667  5 8.54166666666667  C 5.64236111111111 8.54166666666667  6.23480902777778 8.38324652777778  6.77734375 8.06640625  C 7.31987847222222 7.74956597222222  7.74956597222222 7.31987847222222  8.06640625 6.77734375  Z M 9.32942708333333 2.490234375  C 9.77647569444444 3.25629340277778  10 4.09288194444444  10 5  C 10 5.90711805555556  9.77647569444444 6.74370659722222  9.32942708333333 7.509765625  C 8.88237847222222 8.27582465277778  8.27582465277778 8.88237847222222  7.509765625 9.32942708333333  C 6.74370659722222 9.77647569444444  5.90711805555556 10  5 10  C 4.09288194444444 10  3.25629340277778 9.77647569444444  2.490234375 9.32942708333333  C 1.72417534722222 8.88237847222222  1.11762152777778 8.27582465277778  0.670572916666667 7.509765625  C 0.223524305555556 6.74370659722222  0 5.90711805555556  0 5  C 0 4.09288194444444  0.223524305555556 3.25629340277778  0.670572916666667 2.490234375  C 1.11762152777778 1.72417534722222  1.72417534722222 1.11762152777778  2.490234375 0.670572916666666  C 3.25629340277778 0.223524305555555  4.09288194444444 0  5 0  C 5.90711805555556 0  6.74370659722222 0.223524305555555  7.509765625 0.670572916666666  C 8.27582465277778 1.11762152777778  8.88237847222222 1.72417534722222  9.32942708333333 2.490234375  Z " fill-rule="nonzero" fill="#aaaaaa" stroke="none" transform="matrix(1 0 0 1 37 724 )" />
  </g>
</svg>