<?xml version="1.0" encoding="utf-8"?>
<svg version="1.1" xmlns:xlink="http://www.w3.org/1999/xlink" width="8px" height="6px" xmlns="http://www.w3.org/2000/svg">
  <g transform="matrix(1 0 0 1 -343 -1147 )">
    <path d="M 6.58928571428571 3.21875  C 7.14880952380952 2.72916666666667  7.42857142857143 2.265625  7.42857142857143 1.828125  C 7.42857142857143 1.6171875  7.39657738095238 1.43098958333333  7.33258928571429 1.26953125  C 7.26860119047619 1.10807291666667  7.18675595238095 0.979817708333333  7.08705357142857 0.884765625  C 6.98735119047619 0.789713541666666  6.86607142857143 0.712239583333333  6.72321428571429 0.65234375  C 6.58035714285714 0.592447916666666  6.44047619047619 0.552083333333333  6.30357142857143 0.53125  C 6.16666666666667 0.510416666666666  6.02083333333333 0.5  5.86607142857143 0.5  C 5.71130952380952 0.5  5.54464285714286 0.533203125  5.36607142857143 0.599609375  C 5.1875 0.666015625  5.02306547619048 0.749348958333333  4.87276785714286 0.849609375  C 4.72247023809524 0.949869791666666  4.59375 1.04361979166667  4.48660714285714 1.130859375  C 4.37946428571429 1.21809895833333  4.29017857142857 1.29817708333333  4.21875 1.37109375  C 4.16517857142857 1.42838541666667  4.09226190476191 1.45703125  4 1.45703125  C 3.9077380952381 1.45703125  3.83482142857143 1.42838541666667  3.78125 1.37109375  C 3.70982142857143 1.29817708333333  3.62053571428571 1.21809895833333  3.51339285714286 1.130859375  C 3.40625 1.04361979166667  3.27752976190476 0.949869791666666  3.12723214285714 0.849609375  C 2.97693452380952 0.749348958333333  2.8125 0.666015625  2.63392857142857 0.599609375  C 2.45535714285714 0.533203125  2.28869047619048 0.5  2.13392857142857 0.5  C 1.97916666666667 0.5  1.83333333333333 0.510416666666666  1.69642857142857 0.53125  C 1.55952380952381 0.552083333333333  1.41964285714286 0.592447916666666  1.27678571428571 0.65234375  C 1.13392857142857 0.712239583333333  1.01264880952381 0.789713541666666  0.912946428571429 0.884765625  C 0.813244047619048 0.979817708333333  0.73139880952381 1.10807291666667  0.667410714285714 1.26953125  C 0.603422619047619 1.43098958333333  0.571428571428571 1.6171875  0.571428571428571 1.828125  C 0.571428571428571 2.265625  0.849702380952381 2.72786458333333  1.40625 3.21484375  L 4 5.40234375  L 6.58928571428571 3.21875  Z M 7.43303571428571 0.484375  C 7.81101190476191 0.807291666666666  8 1.25520833333333  8 1.828125  C 8 2.40364583333333  7.65922619047619 2.98958333333333  6.97767857142857 3.5859375  L 4.19642857142857 5.9296875  C 4.14285714285714 5.9765625  4.07738095238095 6  4 6  C 3.92261904761905 6  3.85714285714286 5.9765625  3.80357142857143 5.9296875  L 1.01785714285714 3.578125  C 0.988095238095238 3.55729166666667  0.947172619047619 3.5234375  0.895089285714286 3.4765625  C 0.843005952380952 3.4296875  0.760416666666667 3.34440104166667  0.647321428571429 3.220703125  C 0.53422619047619 3.09700520833333  0.433035714285714 2.97005208333333  0.34375 2.83984375  C 0.254464285714286 2.70963541666667  0.17485119047619 2.55208333333333  0.104910714285714 2.3671875  C 0.0349702380952381 2.18229166666667  0 2.00260416666667  0 1.828125  C 0 1.25520833333333  0.188988095238095 0.807291666666666  0.566964285714286 0.484375  C 0.944940476190476 0.161458333333333  1.4672619047619 0  2.13392857142857 0  C 2.31845238095238 0  2.50669642857143 0.0279947916666663  2.69866071428571 0.0839843750000002  C 2.890625 0.139973958333333  3.06919642857143 0.215494791666666  3.234375 0.310546875  C 3.39955357142857 0.405598958333333  3.54166666666667 0.494791666666666  3.66071428571429 0.578125  C 3.77976190476191 0.661458333333333  3.89285714285714 0.75  4 0.84375  C 4.10714285714286 0.75  4.2202380952381 0.661458333333333  4.33928571428571 0.578125  C 4.45833333333333 0.494791666666666  4.60044642857143 0.405598958333333  4.765625 0.310546875  C 4.93080357142857 0.215494791666666  5.109375 0.139973958333333  5.30133928571429 0.0839843750000002  C 5.49330357142857 0.0279947916666663  5.68154761904762 0  5.86607142857143 0  C 6.5327380952381 0  7.05505952380952 0.161458333333333  7.43303571428571 0.484375  Z " fill-rule="nonzero" fill="#d7d7d7" stroke="none" transform="matrix(1 0 0 1 343 1147 )" />
  </g>
</svg>