<?xml version="1.0" encoding="utf-8"?>
<svg version="1.1" xmlns:xlink="http://www.w3.org/1999/xlink" width="14px" height="21px" xmlns="http://www.w3.org/2000/svg">
  <g transform="matrix(1 0 0 1 -43 -196 )">
    <path d="M 14 7  C 14 3.140375  10.859625 0  7 0  C 3.14037500000001 0  0 3.140375  0 7  C 0 10.714375  6.36387500000001 20.393625  6.63512500000002 20.803125  C 6.71562499999999 20.9265  6.85300000000001 21  7 21  C 7.14699999999999 21  7.28437500000001 20.9265  7.36487499999998 20.803125  C 7.63612499999999 20.393625  14 10.714375  14 7  Z M 13.125 7  C 13.125 9.970625  8.37025 17.6155  7 19.7575  C 5.62975 17.6155  0.875 9.9715  0.875 7  C 0.875 3.6225  3.6225 0.875  7 0.875  C 10.376625 0.875  13.125 3.6225  13.125 7  Z M 10.0625 7  C 10.0625 5.31125  8.68875000000003 3.9375  7 3.9375  C 5.31124999999997 3.9375  3.9375 5.31125  3.9375 7  C 3.9375 8.68875  5.31124999999997 10.0625  7 10.0625  C 8.68875000000003 10.0625  10.0625 8.68875  10.0625 7  Z M 9.1875 7  C 9.1875 8.20575  8.20575000000002 9.1875  7 9.1875  C 5.79424999999998 9.1875  4.8125 8.20575  4.8125 7  C 4.8125 5.79425  5.79424999999998 4.8125  7 4.8125  C 8.20575000000002 4.8125  9.1875 5.79425  9.1875 7  Z " fill-rule="nonzero" fill="#000000" stroke="none" transform="matrix(1 0 0 1 43 196 )" />
  </g>
</svg>