<?xml version="1.0" encoding="utf-8"?>
<svg version="1.1" xmlns:xlink="http://www.w3.org/1999/xlink" width="16px" height="16px" xmlns="http://www.w3.org/2000/svg">
  <g transform="matrix(1 0 0 1 -226 -13 )">
    <path d="M 15.6228956228961 11.9595959595958  C 15.8742985409654 12.2109988776656  16 12.5162738496074  16 12.8754208754208  C 16 13.2345679012346  15.8742985409654 13.539842873176  15.6228956228961 13.7912457912457  L 13.7912457912462 15.6228956228956  C 13.539842873176 15.8742985409654  13.2345679012342 16  12.8754208754208 16  C 12.5162738496074 16  12.2109988776656 15.8742985409654  11.9595959595963 15.6228956228956  L 8 11.6632996632998  L 4.0404040404037 15.6228956228956  C 3.78900112233441 15.8742985409654  3.48372615039261 16  3.12457912457921 16  C 2.76543209876581 16  2.46015712682402 15.8742985409654  2.20875420875382 15.6228956228956  L 0.377104377103933 13.7912457912457  C 0.125701459034644 13.539842873176  0 13.2345679012346  0 12.8754208754208  C 0 12.5162738496074  0.125701459034644 12.2109988776656  0.377104377103933 11.9595959595958  L 4.33670033670023 8  L 0.377104377103933 4.04040404040416  C 0.125701459034644 3.78900112233441  0 3.48372615039261  0 3.12457912457921  C 0 2.76543209876536  0.125701459034644 2.46015712682402  0.377104377103933 2.20875420875427  L 2.20875420875382 0.377104377104388  C 2.46015712682402 0.125701459034644  2.76543209876581 0  3.12457912457921 0  C 3.48372615039261 0  3.78900112233441 0.125701459034644  4.0404040404037 0.377104377104388  L 8 4.33670033670023  L 11.9595959595963 0.377104377104388  C 12.2109988776656 0.125701459034644  12.5162738496074 0  12.8754208754208 0  C 13.2345679012342 0  13.539842873176 0.125701459034644  13.7912457912462 0.377104377104388  L 15.6228956228961 2.20875420875427  C 15.8742985409654 2.46015712682402  16 2.76543209876536  16 3.12457912457921  C 16 3.48372615039261  15.8742985409654 3.78900112233441  15.6228956228961 4.04040404040416  L 11.6632996632998 8  L 15.6228956228961 11.9595959595958  Z " fill-rule="nonzero" fill="#000000" stroke="none" transform="matrix(1 0 0 1 226 13 )" />
  </g>
</svg>