<?xml version="1.0" encoding="utf-8"?>
<svg version="1.1" xmlns:xlink="http://www.w3.org/1999/xlink" width="10px" height="17px" xmlns="http://www.w3.org/2000/svg">
  <g transform="matrix(1 0 0 1 -345 -915 )">
    <path d="M 9.82817869415805 8.10821643286567  C 9.94272623138602 8.22177688710758  10 8.35237140948561  10 8.5  C 10 8.64762859051439  9.94272623138602 8.77822311289242  9.82817869415805 8.89178356713433  L 1.82130584192441 16.8296593186374  C 1.70675830469645 16.943219772879  1.57502863688433 17  1.42611683848799 17  C 1.27720504009164 17  1.14547537227952 16.943219772879  1.03092783505156 16.8296593186374  L 0.171821305841945 15.9779559118238  C 0.0572737686139817 15.8643954575818  0 15.7338009352038  0 15.5861723446894  C 0 15.438543754175  0.0572737686139817 15.307949231797  0.171821305841945 15.1943887775551  L 6.92439862542955 8.5  L 0.171821305841945 1.8056112224449  C 0.0572737686139817 1.69205076820299  0 1.56145624582496  0 1.41382765531057  C 0 1.26619906479618  0.0572737686139817 1.13560454241815  0.171821305841945 1.02204408817624  L 1.03092783505156 0.170340681362632  C 1.14547537227952 0.056780227120953  1.27720504009164 0  1.42611683848799 0  C 1.57502863688433 0  1.70675830469645 0.056780227120953  1.82130584192441 0.170340681362632  L 9.82817869415805 8.10821643286567  Z " fill-rule="nonzero" fill="#000000" stroke="none" transform="matrix(1 0 0 1 345 915 )" />
  </g>
</svg>