<?xml version="1.0" encoding="utf-8"?>
<svg version="1.1" xmlns:xlink="http://www.w3.org/1999/xlink" width="4px" height="8px" xmlns="http://www.w3.org/2000/svg">
  <g transform="matrix(1 0 0 1 -1010 -112 )">
    <path d="M 3.86805555555556 3.6484375  C 3.95601851851852 3.74739583333333  4 3.86458333333333  4 4  C 4 4.13541666666667  3.95601851851852 4.25260416666667  3.86805555555556 4.3515625  L 0.756944444444444 7.8515625  C 0.668981481481482 7.95052083333333  0.564814814814815 8  0.444444444444444 8  C 0.324074074074074 8  0.219907407407407 7.95052083333333  0.131944444444444 7.8515625  C 0.0439814814814815 7.75260416666667  0 7.63541666666667  0 7.5  L 0 0.5  C 0 0.364583333333332  0.0439814814814815 0.247395833333332  0.131944444444444 0.1484375  C 0.219907407407407 0.0494791666666661  0.324074074074074 0  0.444444444444444 0  C 0.564814814814815 0  0.668981481481482 0.0494791666666661  0.756944444444444 0.1484375  L 3.86805555555556 3.6484375  Z " fill-rule="nonzero" fill="#000000" stroke="none" transform="matrix(1 0 0 1 1010 112 )" />
  </g>
</svg>