<?xml version="1.0" encoding="utf-8"?>
<svg version="1.1" xmlns:xlink="http://www.w3.org/1999/xlink" width="359px" height="534px" xmlns="http://www.w3.org/2000/svg">
  <g transform="matrix(1 0 0 1 -453 -99 )">
    <path d="M 454 103  A 3 3 0 0 1 457 100 L 808 100  A 3 3 0 0 1 811 103 L 811 629  A 3 3 0 0 1 808 632 L 457 632  A 3 3 0 0 1 454 629 L 454 103  Z " fill-rule="nonzero" fill="#f2f2f2" stroke="none" />
    <path d="M 453.5 103  A 3.5 3.5 0 0 1 457 99.5 L 808 99.5  A 3.5 3.5 0 0 1 811.5 103 L 811.5 629  A 3.5 3.5 0 0 1 808 632.5 L 457 632.5  A 3.5 3.5 0 0 1 453.5 629 L 453.5 103  Z " stroke-width="1" stroke="#797979" fill="none" stroke-opacity="0.498039215686275" />
  </g>
</svg>