<?xml version="1.0" encoding="utf-8"?>
<svg version="1.1" xmlns:xlink="http://www.w3.org/1999/xlink" width="14px" height="14px" xmlns="http://www.w3.org/2000/svg">
  <g transform="matrix(1 0 0 1 -70 -694 )">
    <path d="M 13.5260263157895 5.33059459459457  C 13.6188684210526 5.25681081081086  13.6547894736842 5.12910810810808  13.6166578947368 5.01502702702703  C 13.5774210526316 4.90094594594598  13.4729736842105 4.82432432432438  13.3552631578947 4.82432432432438  L 8.85352631578948 4.82432432432438  L 7.26084210526315 0.189567567567565  C 7.22105263157894 0.0760540540539978  7.11660526315789 0  7 0  C 6.88228947368421 0  6.7783947368421 0.0760540540539978  6.73915789473685 0.189567567567565  L 5.14647368421052 4.82432432432438  L 0.64473684210526 4.82432432432438  C 0.52702631578947 4.82432432432438  0.422026315789481 4.90094594594598  0.383342105263154 5.01502702702703  C 0.3441052631579 5.12910810810808  0.381131578947375 5.25681081081086  0.47397368421052 5.33116216216217  L 4.18931578947368 8.32962162162164  L 2.59276315789474 13.2481621621622  C 2.55463157894737 13.3656486486486  2.59497368421053 13.4956216216216  2.69223684210526 13.5677027027027  C 2.7895 13.6403513513513  2.92102631578948 13.6403513513513  3.01828947368421 13.5671351351351  L 7 10.5681081081082  L 10.9811578947368 13.566  C 11.0297894736842 13.6040270270271  11.0872631578947 13.6216216216217  11.1447368421053 13.6216216216217  C 11.2022105263158 13.6216216216217  11.2585789473684 13.6040270270271  11.3072105263158 13.5671351351351  C 11.4050263157895 13.4939189189189  11.4448157894737 13.3656486486486  11.4072368421053 13.2475945945946  L 9.81013157894736 8.32905405405404  L 13.5260263157895 5.33059459459457  Z " fill-rule="nonzero" fill="#000000" stroke="none" transform="matrix(1 0 0 1 70 694 )" />
  </g>
</svg>