<?xml version="1.0" encoding="utf-8"?>
<svg version="1.1" xmlns:xlink="http://www.w3.org/1999/xlink" width="23px" height="18px" xmlns="http://www.w3.org/2000/svg">
  <g transform="matrix(1 0 0 1 -27 -187 )">
    <path d="M 21.7165178571429 6.91619318181818  C 22.2042410714286 6.58380681818182  22.632068452381 6.21306818181818  23 5.80397727272727  L 23 15.9545454545455  C 23 16.5170454545455  22.7989211309524 16.9985795454545  22.3967633928571 17.3991477272727  C 21.9946056547619 17.7997159090909  21.5111607142857 18  20.9464285714286 18  L 2.05357142857143 18  C 1.48883928571429 18  1.0053943452381 17.7997159090909  0.603236607142857 17.3991477272727  C 0.201078869047619 16.9985795454545  0 16.5170454545455  0 15.9545454545455  L 0 5.80397727272727  C 0.376488095238095 6.22159090909091  0.80859375 6.59232954545454  1.29631696428571 6.91619318181818  C 4.39378720238095 9.01278409090909  6.52008928571429 10.4829545454545  7.67522321428571 11.3267045454545  C 8.16294642857143 11.6846590909091  8.55868675595238 11.9637784090909  8.86244419642857 12.1640625  C 9.16620163690476 12.3643465909091  9.57049851190476 12.5688920454545  10.0753348214286 12.7776988636364  C 10.5801711309524 12.9865056818182  11.05078125 13.0909090909091  11.4871651785714 13.0909090909091  L 11.5 13.0909090909091  L 11.5128348214286 13.0909090909091  C 11.94921875 13.0909090909091  12.4198288690476 12.9865056818182  12.9246651785714 12.7776988636364  C 13.4295014880952 12.5688920454545  13.8337983630952 12.3643465909091  14.1375558035714 12.1640625  C 14.4413132440476 11.9637784090909  14.8370535714286 11.6846590909091  15.3247767857143 11.3267045454545  C 16.7793898809524 10.2784090909091  18.9099702380952 8.80823863636364  21.7165178571429 6.91619318181818  Z M 22.3903459821429 0.600852272727272  C 22.7967819940476 1.00142045454545  23 1.48295454545455  23 2.04545454545455  C 23 2.71875  22.7903645833333 3.36221590909091  22.37109375 3.97585227272727  C 21.9518229166667 4.58948863636364  21.4298735119048 5.11363636363636  20.8052455357143 5.54829545454545  C 17.5879836309524 7.77272727272727  15.5857514880952 9.15767045454546  14.7985491071429 9.703125  C 14.7129836309524 9.76278409090909  14.5311569940476 9.89275568181818  14.2530691964286 10.0930397727273  C 13.9749813988095 10.2933238636364  13.7439546130952 10.4552556818182  13.5599888392857 10.5788352272727  C 13.3760230654762 10.7024147727273  13.153552827381 10.8409090909091  12.892578125 10.9943181818182  C 12.631603422619 11.1477272727273  12.3856026785714 11.2627840909091  12.1545758928571 11.3394886363636  C 11.9235491071429 11.4161931818182  11.7096354166667 11.4545454545455  11.5128348214286 11.4545454545455  L 11.5 11.4545454545455  L 11.4871651785714 11.4545454545455  C 11.2903645833333 11.4545454545455  11.0764508928571 11.4161931818182  10.8454241071429 11.3394886363636  C 10.6143973214286 11.2627840909091  10.368396577381 11.1477272727273  10.107421875 10.9943181818182  C 9.84644717261905 10.8409090909091  9.62397693452381 10.7024147727273  9.44001116071428 10.5788352272727  C 9.25604538690476 10.4552556818182  9.02501860119048 10.2933238636364  8.74693080357143 10.0930397727273  C 8.46884300595238 9.89275568181818  8.28701636904762 9.76278409090909  8.20145089285714 9.703125  C 7.42280505952381 9.15767045454546  6.30189732142857 8.37997159090909  4.83872767857143 7.37002840909091  C 3.37555803571429 6.36008522727273  2.49851190476191 5.75284090909091  2.20758928571429 5.54829545454545  C 1.67708333333333 5.19034090909091  1.17652529761905 4.69815340909091  0.705915178571429 4.07173295454545  C 0.23530505952381 3.4453125  0 2.86363636363636  0 2.32670454545455  C 0 1.66193181818182  0.177548363095238 1.10795454545454  0.532645089285714 0.664772727272728  C 0.887741815476191 0.221590909090907  1.39471726190476 0  2.05357142857143 0  L 20.9464285714286 0  C 21.5026041666667 0  21.9839099702381 0.200284090909089  22.3903459821429 0.600852272727272  Z " fill-rule="nonzero" fill="#ffffff" stroke="none" transform="matrix(1 0 0 1 27 187 )" />
  </g>
</svg>