<?xml version="1.0" encoding="utf-8"?>
<svg version="1.1" xmlns:xlink="http://www.w3.org/1999/xlink" width="12px" height="12px" viewBox="97 428  12 12" xmlns="http://www.w3.org/2000/svg">
  <path d="M 103 428  C 106.36 428  109 430.64  109 434  C 109 437.36  106.36 440  103 440  C 99.64 440  97 437.36  97 434  C 97 430.64  99.64 428  103 428  Z " fill-rule="nonzero" fill="#ffffff" stroke="none" />
  <path d="M 103 428.5  C 106.08 428.5  108.5 430.92  108.5 434  C 108.5 437.08  106.08 439.5  103 439.5  C 99.92 439.5  97.5 437.08  97.5 434  C 97.5 430.92  99.92 428.5  103 428.5  Z " stroke-width="1" stroke="#797979" fill="none" />
  <path d="M 103 437  C 101.32 437  100 435.68  100 434  C 100 432.32  101.32 431  103 431  C 104.68 431  106 432.32  106 434  C 106 435.68  104.68 437  103 437  " fill-rule="nonzero" fill="#797979" stroke="none" />
</svg>