<?xml version="1.0" encoding="utf-8"?>
<svg version="1.1" xmlns:xlink="http://www.w3.org/1999/xlink" width="57px" height="57px" xmlns="http://www.w3.org/2000/svg">
  <g transform="matrix(1 0 0 1 -725 -108 )">
    <path d="M 753.5 108  C 769.46 108  782 120.54  782 136.5  C 782 152.46  769.46 165  753.5 165  C 737.54 165  725 152.46  725 136.5  C 725 120.54  737.54 108  753.5 108  Z " fill-rule="nonzero" fill="#ffffff" stroke="none" />
    <path d="M 753.5 108.5  C 769.18 108.5  781.5 120.82  781.5 136.5  C 781.5 152.18  769.18 164.5  753.5 164.5  C 737.82 164.5  725.5 152.18  725.5 136.5  C 725.5 120.82  737.82 108.5  753.5 108.5  Z " stroke-width="1" stroke="#797979" fill="none" />
  </g>
</svg>