<?xml version="1.0" encoding="utf-8"?>
<svg version="1.1" xmlns:xlink="http://www.w3.org/1999/xlink" width="16px" height="10px" xmlns="http://www.w3.org/2000/svg">
  <g transform="matrix(1 0 0 1 -104 -127 )">
    <path d="M 16 2.21739130434783  C 16 2.38808373590982  15.9371381306865 2.53462157809984  15.8114143920596 2.65700483091787  L 8.44665012406948 9.81642512077295  C 8.32092638544252 9.93880837359098  8.17204301075269 10  8 10  C 7.82795698924731 10  7.67907361455749 9.93880837359098  7.55334987593052 9.81642512077295  L 0.188585607940447 2.65700483091787  C 0.0628618693134823 2.53462157809984  0 2.38808373590982  0 2.21739130434783  C 0 2.04669887278583  0.0628618693134823 1.90016103059581  0.188585607940447 1.77777777777778  L 1.83622828784119 0.183574879227053  C 1.96195202646816 0.0611916264090173  2.11083540115798 0  2.28287841191067 0  C 2.45492142266336 0  2.60380479735319 0.0611916264090173  2.72952853598015 0.183574879227053  L 8 5.31400966183575  L 13.2704714640199 0.183574879227053  C 13.3961952026468 0.0611916264090173  13.5450785773366 0  13.7171215880893 0  C 13.889164598842 0  14.0380479735318 0.0611916264090173  14.1637717121588 0.183574879227053  L 15.8114143920596 1.77777777777778  C 15.9371381306865 1.90016103059581  16 2.04669887278583  16 2.21739130434783  Z " fill-rule="nonzero" fill="#000000" stroke="none" transform="matrix(1 0 0 1 104 127 )" />
  </g>
</svg>