<?xml version="1.0" encoding="utf-8"?>
<svg version="1.1" xmlns:xlink="http://www.w3.org/1999/xlink" width="24px" height="20px" xmlns="http://www.w3.org/2000/svg">
  <g transform="matrix(1 0 0 1 -300 -90 )">
    <path d="M 8.06919642857143 9.70764119601329  C 8.40401785714286 9.37541528239203  8.57142857142857 8.97452934662237  8.57142857142857 8.50498338870432  C 8.57142857142857 8.03543743078627  8.40401785714286 7.63455149501661  8.06919642857143 7.30232558139535  C 7.734375 6.97009966777409  7.33035714285714 6.80398671096345  6.85714285714286 6.80398671096345  C 6.38392857142857 6.80398671096345  5.97991071428572 6.97009966777409  5.64508928571429 7.30232558139535  C 5.31026785714286 7.63455149501661  5.14285714285714 8.03543743078627  5.14285714285714 8.50498338870432  C 5.14285714285714 8.97452934662237  5.31026785714286 9.37541528239203  5.64508928571429 9.70764119601329  C 5.97991071428572 10.0398671096345  6.38392857142857 10.2059800664452  6.85714285714286 10.2059800664452  C 7.33035714285714 10.2059800664452  7.734375 10.0398671096345  8.06919642857143 9.70764119601329  Z M 13.2120535714286 9.70764119601329  C 13.546875 9.37541528239203  13.7142857142857 8.97452934662237  13.7142857142857 8.50498338870432  C 13.7142857142857 8.03543743078627  13.546875 7.63455149501661  13.2120535714286 7.30232558139535  C 12.8772321428571 6.97009966777409  12.4732142857143 6.80398671096345  12 6.80398671096345  C 11.5267857142857 6.80398671096345  11.1227678571429 6.97009966777409  10.7879464285714 7.30232558139535  C 10.453125 7.63455149501661  10.2857142857143 8.03543743078627  10.2857142857143 8.50498338870432  C 10.2857142857143 8.97452934662237  10.453125 9.37541528239203  10.7879464285714 9.70764119601329  C 11.1227678571429 10.0398671096345  11.5267857142857 10.2059800664452  12 10.2059800664452  C 12.4732142857143 10.2059800664452  12.8772321428571 10.0398671096345  13.2120535714286 9.70764119601329  Z M 18.3549107142857 9.70764119601329  C 18.6897321428571 9.37541528239203  18.8571428571429 8.97452934662237  18.8571428571429 8.50498338870432  C 18.8571428571429 8.03543743078627  18.6897321428571 7.63455149501661  18.3549107142857 7.30232558139535  C 18.0200892857143 6.97009966777409  17.6160714285714 6.80398671096345  17.1428571428571 6.80398671096345  C 16.6696428571429 6.80398671096345  16.265625 6.97009966777409  15.9308035714286 7.30232558139535  C 15.5959821428571 7.63455149501661  15.4285714285714 8.03543743078627  15.4285714285714 8.50498338870432  C 15.4285714285714 8.97452934662237  15.5959821428571 9.37541528239203  15.9308035714286 9.70764119601329  C 16.265625 10.0398671096345  16.6696428571429 10.2059800664452  17.1428571428571 10.2059800664452  C 17.6160714285714 10.2059800664452  18.0200892857143 10.0398671096345  18.3549107142857 9.70764119601329  Z M 22.3928571428571 4.23255813953488  C 23.4642857142857 5.53931339977852  24 6.96345514950166  24 8.50498338870432  C 24 10.046511627907  23.4642857142857 11.4706533776301  22.3928571428571 12.7774086378738  C 21.3214285714286 14.0841638981174  19.8660714285714 15.1162790697674  18.0267857142857 15.8737541528239  C 16.1875 16.6312292358804  14.1785714285714 17.0099667774086  12 17.0099667774086  C 11.0178571428571 17.0099667774086  10.0758928571429 16.9302325581395  9.17410714285714 16.7707641196013  C 7.62946428571429 18.3034330011074  5.6875 19.3178294573643  3.34821428571429 19.8139534883721  C 2.88392857142857 19.9025470653378  2.5 19.9601328903655  2.19642857142857 19.9867109634551  C 2.08928571428571 19.9955703211517  1.99107142857143 19.968992248062  1.90178571428571 19.906976744186  C 1.8125 19.8449612403101  1.75446428571429 19.765227021041  1.72767857142857 19.6677740863787  C 1.69196428571429 19.5348837209302  1.78125 19.3709856035437  1.99553571428571 19.1760797342193  C 2.04017857142857 19.1317829457364  2.14508928571429 19.0365448504983  2.31026785714286 18.890365448505  C 2.47544642857143 18.7441860465116  2.58928571428571 18.640088593577  2.65178571428571 18.578073089701  C 2.71428571428571 18.516057585825  2.81919642857143 18.4031007751938  2.96651785714286 18.2392026578073  C 3.11383928571429 18.0753045404208  3.22098214285714 17.9357696566999  3.28794642857143 17.8205980066445  C 3.35491071428571 17.7054263565891  3.44642857142857 17.5415282392027  3.5625 17.3289036544851  C 3.67857142857143 17.1162790697674  3.76785714285714 16.9036544850498  3.83035714285714 16.6910299003322  C 3.89285714285714 16.4784053156146  3.95758928571429 16.2236987818383  4.02455357142857 15.9269102990033  C 4.09151785714286 15.6301218161683  4.14732142857143 15.3089700996678  4.19196428571429 14.9634551495017  C 2.88839285714286 14.1661129568106  1.86383928571429 13.2070874861573  1.11830357142857 12.0863787375415  C 0.372767857142857 10.9656699889258  0 9.7718715393134  0 8.50498338870432  C 0 6.96345514950166  0.535714285714286 5.53931339977852  1.60714285714286 4.23255813953488  C 2.67857142857143 2.92580287929125  4.13392857142857 1.8936877076412  5.97321428571429 1.13621262458472  C 7.8125 0.37873754152824  9.82142857142857 0  12 0  C 14.1785714285714 0  16.1875 0.37873754152824  18.0267857142857 1.13621262458472  C 19.8660714285714 1.8936877076412  21.3214285714286 2.92580287929125  22.3928571428571 4.23255813953488  Z " fill-rule="nonzero" fill="#000000" stroke="none" transform="matrix(1 0 0 1 300 90 )" />
  </g>
</svg>