<?xml version="1.0" encoding="utf-8"?>
<svg version="1.1" xmlns:xlink="http://www.w3.org/1999/xlink" width="12px" height="12px" viewBox="335 470  12 12" xmlns="http://www.w3.org/2000/svg">
  <path d="M 341 470  C 344.36 470  347 472.64  347 476  C 347 479.36  344.36 482  341 482  C 337.64 482  335 479.36  335 476  C 335 472.64  337.64 470  341 470  Z " fill-rule="nonzero" fill="#ffffff" stroke="none" />
  <path d="M 341 470.5  C 344.08 470.5  346.5 472.92  346.5 476  C 346.5 479.08  344.08 481.5  341 481.5  C 337.92 481.5  335.5 479.08  335.5 476  C 335.5 472.92  337.92 470.5  341 470.5  Z " stroke-width="1" stroke="#797979" fill="none" />
  <path d="M 341 479  C 339.32 479  338 477.68  338 476  C 338 474.32  339.32 473  341 473  C 342.68 473  344 474.32  344 476  C 344 477.68  342.68 479  341 479  " fill-rule="nonzero" fill="#797979" stroke="none" />
</svg>