<?xml version="1.0" encoding="utf-8"?>
<svg version="1.1" xmlns:xlink="http://www.w3.org/1999/xlink" width="12px" height="12px" viewBox="335 450  12 12" xmlns="http://www.w3.org/2000/svg">
  <path d="M 341 450  C 344.36 450  347 452.64  347 456  C 347 459.36  344.36 462  341 462  C 337.64 462  335 459.36  335 456  C 335 452.64  337.64 450  341 450  Z " fill-rule="nonzero" fill="#ffffff" stroke="none" />
  <path d="M 341 450.5  C 344.08 450.5  346.5 452.92  346.5 456  C 346.5 459.08  344.08 461.5  341 461.5  C 337.92 461.5  335.5 459.08  335.5 456  C 335.5 452.92  337.92 450.5  341 450.5  Z " stroke-width="1" stroke="#797979" fill="none" />
  <path d="M 341 459  C 339.32 459  338 457.68  338 456  C 338 454.32  339.32 453  341 453  C 342.68 453  344 454.32  344 456  C 344 457.68  342.68 459  341 459  " fill-rule="nonzero" fill="#797979" stroke="none" />
</svg>