<?xml version="1.0" encoding="utf-8"?>
<svg version="1.1" xmlns:xlink="http://www.w3.org/1999/xlink" width="15px" height="15px" xmlns="http://www.w3.org/2000/svg">
  <g transform="matrix(1 0 0 1 -313 -168 )">
    <path d="M 14.9680397727273 11.6228693181818  C 14.9893465909091 11.6725852272727  15 11.7471590909091  15 11.8465909090909  C 15 12.0383522727273  14.9644886363636 12.2887073863636  14.8934659090909 12.59765625  C 14.8224431818182 12.9066051136364  14.7478693181818 13.1498579545455  14.6697443181818 13.3274147727273  C 14.5205965909091 13.6825284090909  14.0873579545455 14.0589488636364  13.3700284090909 14.4566761363636  C 12.7024147727273 14.8188920454545  12.0419034090909 15  11.3884943181818 15  C 11.1967329545455 15  11.0085227272727 14.9875710227273  10.8238636363636 14.9627130681818  C 10.6392045454545 14.9378551136364  10.4350142045455 14.8934659090909  10.2112926136364 14.8295454545455  C 9.98757102272727 14.765625  9.82066761363637 14.7141335227273  9.71058238636364 14.6750710227273  C 9.60049715909091 14.6360085227273  9.40340909090909 14.5632102272727  9.11931818181818 14.4566761363636  C 8.83522727272727 14.3501420454545  8.66122159090909 14.2862215909091  8.59730113636364 14.2649147727273  C 7.90127840909091 14.0163352272727  7.27982954545455 13.7215909090909  6.73295454545455 13.3806818181818  C 5.83096590909091 12.8196022727273  4.89346590909091 12.0525568181818  3.92045454545455 11.0795454545455  C 2.94744318181818 10.1065340909091  2.18039772727273 9.16903409090909  1.61931818181818 8.26704545454546  C 1.27840909090909 7.72017045454545  0.983664772727273 7.09872159090909  0.735085227272727 6.40269886363636  C 0.713778409090909 6.33877840909091  0.649857954545455 6.16477272727273  0.543323863636364 5.88068181818182  C 0.436789772727273 5.59659090909091  0.363991477272727 5.39950284090909  0.324928977272727 5.28941761363636  C 0.285866477272727 5.17933238636363  0.234375 5.01242897727273  0.170454545454545 4.78870738636364  C 0.106534090909091 4.56498579545454  0.0621448863636364 4.36079545454545  0.0372869318181818 4.17613636363636  C 0.0124289772727273 3.99147727272727  0 3.80326704545455  0 3.61150568181818  C 0 2.95809659090909  0.181107954545455 2.29758522727273  0.543323863636364 1.62997159090909  C 0.941051136363636 0.912642045454543  1.31747159090909 0.479403409090909  1.67258522727273 0.330255681818181  C 1.85014204545455 0.252130681818181  2.09339488636364 0.177556818181817  2.40234375 0.106534090909091  C 2.71129261363636 0.035511363636363  2.96164772727273 0  3.15340909090909 0  C 3.25284090909091 0  3.32741477272727 0.0106534090909094  3.37713068181818 0.0319602272727265  C 3.50497159090909 0.0745738636363641  3.69318181818182 0.344460227272727  3.94176136363636 0.841619318181819  C 4.01988636363636 0.976562499999998  4.12642045454546 1.16832386363636  4.26136363636364 1.41690340909091  C 4.39630681818182 1.66548295454545  4.52059659090909 1.89098011363636  4.63423295454546 2.09339488636364  C 4.74786931818182 2.29580965909091  4.85795454545455 2.48579545454545  4.96448863636364 2.66335227272727  C 4.98579545454546 2.69176136363636  5.04794034090909 2.78053977272727  5.15092329545455 2.9296875  C 5.25390625 3.07883522727273  5.33025568181818 3.20490056818182  5.37997159090909 3.30788352272727  C 5.4296875 3.41086647727273  5.45454545454546 3.51207386363636  5.45454545454546 3.61150568181818  C 5.45454545454546 3.75355113636363  5.35333806818182 3.93110795454545  5.15092329545455 4.14417613636364  C 4.94850852272727 4.35724431818182  4.72833806818182 4.55255681818182  4.49041193181818 4.73011363636364  C 4.25248579545455 4.90767045454545  4.03231534090909 5.09588068181818  3.82990056818182 5.29474431818182  C 3.62748579545455 5.49360795454545  3.52627840909091 5.65696022727273  3.52627840909091 5.78480113636364  C 3.52627840909091 5.84872159090909  3.54403409090909 5.92862215909091  3.57954545454545 6.02450284090909  C 3.61505681818182 6.12038352272727  3.64524147727273 6.19318181818182  3.67009943181818 6.24289772727273  C 3.69495738636364 6.29261363636363  3.74467329545455 6.37784090909091  3.81924715909091 6.49857954545455  C 3.89382102272727 6.61931818181818  3.93465909090909 6.68678977272727  3.94176136363636 6.70099431818182  C 4.48153409090909 7.67400568181818  5.09943181818182 8.50852272727273  5.79545454545455 9.20454545454546  C 6.49147727272727 9.90056818181818  7.32599431818182 10.5184659090909  8.29900568181818 11.0582386363636  C 8.31321022727273 11.0653409090909  8.38068181818182 11.1061789772727  8.50142045454546 11.1807528409091  C 8.62215909090909 11.2553267045455  8.70738636363637 11.3050426136364  8.75710227272727 11.3299005681818  C 8.80681818181818 11.3547585227273  8.87961647727273 11.3849431818182  8.97549715909091 11.4204545454545  C 9.07137784090909 11.4559659090909  9.15127840909091 11.4737215909091  9.21519886363636 11.4737215909091  C 9.34303977272727 11.4737215909091  9.50639204545455 11.3725142045455  9.70525568181818 11.1700994318182  C 9.90411931818182 10.9676846590909  10.0923295454545 10.7475142045455  10.2698863636364 10.5095880681818  C 10.4474431818182 10.2716619318182  10.6427556818182 10.0514914772727  10.8558238636364 9.84907670454546  C 11.0688920454545 9.64666193181818  11.2464488636364 9.54545454545455  11.3884943181818 9.54545454545455  C 11.4879261363636 9.54545454545455  11.5891335227273 9.5703125  11.6921164772727 9.62002840909091  C 11.7950994318182 9.66974431818182  11.9211647727273 9.74609375  12.0703125 9.84907670454546  C 12.2194602272727 9.95205965909091  12.3082386363636 10.0142045454545  12.3366477272727 10.0355113636364  C 12.5142045454545 10.1420454545455  12.7041903409091 10.2521306818182  12.9066051136364 10.3657670454545  C 13.1090198863636 10.4794034090909  13.3345170454545 10.6036931818182  13.5830965909091 10.7386363636364  C 13.8316761363636 10.8735795454545  14.0234375 10.9801136363636  14.1583806818182 11.0582386363636  C 14.6555397727273 11.3068181818182  14.9254261363636 11.4950284090909  14.9680397727273 11.6228693181818  Z " fill-rule="nonzero" fill="#000000" stroke="none" transform="matrix(1 0 0 1 313 168 )" />
  </g>
</svg>