<?xml version="1.0" encoding="utf-8"?>
<svg version="1.1" xmlns:xlink="http://www.w3.org/1999/xlink" width="24px" height="24px" xmlns="http://www.w3.org/2000/svg">
  <defs>
    <filter x="313px" y="119px" width="24px" height="24px" filterUnits="userSpaceOnUse" id="filter589">
      <feOffset dx="0" dy="0" in="SourceAlpha" result="shadowOffsetInner" />
      <feGaussianBlur stdDeviation="1" in="shadowOffsetInner" result="shadowGaussian" />
      <feComposite in2="shadowGaussian" operator="atop" in="SourceAlpha" result="shadowComposite" />
      <feColorMatrix type="matrix" values="0 0 0 0 0  0 0 0 0 0  0 0 0 0 0  0 0 0 0.349019607843137 0  " in="shadowComposite" />
    </filter>
    <g id="widget590">
      <path d="M 325 121  C 330.6 121  335 125.4  335 131  C 335 136.6  330.6 141  325 141  C 319.4 141  315 136.6  315 131  C 315 125.4  319.4 121  325 121  Z " fill-rule="nonzero" fill="#ffffff" stroke="none" />
      <path d="M 325 121.5  C 330.32 121.5  334.5 125.68  334.5 131  C 334.5 136.32  330.32 140.5  325 140.5  C 319.68 140.5  315.5 136.32  315.5 131  C 315.5 125.68  319.68 121.5  325 121.5  Z " stroke-width="1" stroke="#aaaaaa" fill="none" />
    </g>
  </defs>
  <g transform="matrix(1 0 0 1 -313 -119 )">
    <use xlink:href="#widget590" filter="url(#filter589)" />
    <use xlink:href="#widget590" />
  </g>
</svg>