<?xml version="1.0" encoding="utf-8"?>
<svg version="1.1" xmlns:xlink="http://www.w3.org/1999/xlink" width="13px" height="8px" xmlns="http://www.w3.org/2000/svg">
  <g transform="matrix(1 0 0 1 -181 -609 )">
    <path d="M 13 1.77391304347826  C 13 1.91046698872786  12.9489247311828 2.02769726247987  12.8467741935484 2.1256038647343  L 6.86290322580645 7.85314009661836  C 6.76075268817204 7.95104669887279  6.63978494623656 8  6.5 8  C 6.36021505376344 8  6.23924731182796 7.95104669887279  6.13709677419355 7.85314009661836  L 0.153225806451613 2.1256038647343  C 0.0510752688172044 2.02769726247987  0 1.91046698872786  0 1.77391304347826  C 0 1.63735909822866  0.0510752688172044 1.52012882447665  0.153225806451613 1.42222222222222  L 1.49193548387097 0.146859903381642  C 1.59408602150538 0.0489533011272139  1.71505376344086 0  1.85483870967742 0  C 1.99462365591398 0  2.11559139784946 0.0489533011272139  2.21774193548387 0.146859903381642  L 6.5 4.2512077294686  L 10.7822580645161 0.146859903381642  C 10.8844086021505 0.0489533011272139  11.005376344086 0  11.1451612903226 0  C 11.2849462365591 0  11.4059139784946 0.0489533011272139  11.508064516129 0.146859903381642  L 12.8467741935484 1.42222222222222  C 12.9489247311828 1.52012882447665  13 1.63735909822866  13 1.77391304347826  Z " fill-rule="nonzero" fill="#000000" stroke="none" transform="matrix(1 0 0 1 181 609 )" />
  </g>
</svg>