<?xml version="1.0" encoding="utf-8"?>
<svg version="1.1" xmlns:xlink="http://www.w3.org/1999/xlink" width="26px" height="26px" xmlns="http://www.w3.org/2000/svg">
  <g transform="matrix(1 0 0 1 -10 -570 )">
    <path d="M 23 570  C 30.28 570  36 575.72  36 583  C 36 590.28  30.28 596  23 596  C 15.72 596  10 590.28  10 583  C 10 575.72  15.72 570  23 570  Z " fill-rule="nonzero" fill="#ffffff" stroke="none" />
    <path d="M 23 570.5  C 30 570.5  35.5 576  35.5 583  C 35.5 590  30 595.5  23 595.5  C 16 595.5  10.5 590  10.5 583  C 10.5 576  16 570.5  23 570.5  Z " stroke-width="1" stroke="#797979" fill="none" />
  </g>
</svg>