<?xml version="1.0" encoding="utf-8"?>
<svg version="1.1" xmlns:xlink="http://www.w3.org/1999/xlink" width="22px" height="13px" xmlns="http://www.w3.org/2000/svg">
  <g transform="matrix(1 0 0 1 -123 -577 )">
    <path d="M 21.3233513513513 6.77565909090913  C 21.4517837837838 6.61434090909086  21.4517837837838 6.38565909090914  21.3233513513513 6.22434090909087  C 21.1298108108108 5.98236363636363  16.5303243243243 0.295454545454504  10.716972972973 0.295454545454504  C 4.90362162162162 0.295454545454504  0.303243243243244 5.98236363636363  0.110594594594602 6.22434090909087  C -0.0178378378378312 6.38565909090914  -0.0178378378378312 6.6134545454546  0.110594594594602 6.77477272727265  C 0.303243243243244 7.01763636363637  4.90272972972973 12.7045454545455  10.716972972973 12.7045454545455  C 16.5312162162162 12.7045454545455  21.1298108108108 7.01763636363637  21.3233513513513 6.77565909090913  Z M 20.3895405405405 6.5  C 19.3986486486486 7.62656818181824  15.3976216216216 11.8181818181819  10.716972972973 11.8181818181819  C 6.03721621621622 11.8181818181819  2.03529729729729 7.62656818181824  1.0444054054054 6.5  C 2.03529729729729 5.37343181818176  6.03721621621622 1.18181818181813  10.716972972973 1.18181818181813  C 15.3976216216216 1.18181818181813  19.3986486486486 5.37343181818176  20.3895405405405 6.5  Z M 14.7304864864865 6.5  C 14.7304864864865 4.30093181818177  12.9297567567567 2.51136363636363  10.716972972973 2.51136363636363  C 8.50418918918919 2.51136363636363  6.70345945945945 4.30093181818177  6.70345945945945 6.5  C 6.70345945945945 8.69818181818187  8.50418918918919 10.4886363636364  10.716972972973 10.4886363636364  C 12.9297567567567 10.4886363636364  14.7304864864865 8.69818181818187  14.7304864864865 6.5  Z M 13.8385945945946 6.5  C 13.8385945945946 8.2106818181818  12.4374324324324 9.60227272727263  10.716972972973 9.60227272727263  C 8.99562162162161 9.60227272727263  7.59535135135135 8.2106818181818  7.59535135135135 6.5  C 7.59535135135135 4.7893181818182  8.99562162162161 3.39772727272737  10.716972972973 3.39772727272737  C 12.4374324324324 3.39772727272737  13.8385945945946 4.7893181818182  13.8385945945946 6.5  Z " fill-rule="nonzero" fill="#000000" stroke="none" transform="matrix(1 0 0 1 123 577 )" />
  </g>
</svg>