<?xml version="1.0" encoding="utf-8"?>
<svg version="1.1" xmlns:xlink="http://www.w3.org/1999/xlink" width="10px" height="14px" xmlns="http://www.w3.org/2000/svg">
  <g transform="matrix(1 0 0 1 -1068 -301 )">
    <path d="M 10 4.66666666666667  C 10 2.09358333333333  7.756875 0  5 0  C 2.243125 0  0 2.09358333333333  0 4.66666666666667  C 0 7.14291666666667  4.54562500000001 13.59575  4.73937500000001 13.86875  C 4.79687499999999 13.951  4.89500000000001 14  5 14  C 5.10499999999999 14  5.20312500000001 13.951  5.26062499999999 13.86875  C 5.45437499999999 13.59575  10 7.14291666666667  10 4.66666666666667  Z M 9.375 4.66666666666667  C 9.375 6.64708333333333  5.97875 11.7436666666667  5 13.1716666666667  C 4.02125 11.7436666666667  0.625 6.64766666666667  0.625 4.66666666666667  C 0.625 2.415  2.5875 0.583333333333333  5 0.583333333333333  C 7.41187499999999 0.583333333333333  9.375 2.415  9.375 4.66666666666667  Z M 7.1875 4.66666666666667  C 7.1875 3.54083333333333  6.20625000000002 2.625  5 2.625  C 3.79374999999998 2.625  2.8125 3.54083333333333  2.8125 4.66666666666667  C 2.8125 5.7925  3.79374999999998 6.70833333333333  5 6.70833333333333  C 6.20625000000002 6.70833333333333  7.1875 5.7925  7.1875 4.66666666666667  Z M 6.5625 4.66666666666667  C 6.5625 5.4705  5.86125000000002 6.125  5 6.125  C 4.13874999999998 6.125  3.4375 5.4705  3.4375 4.66666666666667  C 3.4375 3.86283333333333  4.13874999999998 3.20833333333333  5 3.20833333333333  C 5.86125000000002 3.20833333333333  6.5625 3.86283333333333  6.5625 4.66666666666667  Z " fill-rule="nonzero" fill="#ffffff" stroke="none" transform="matrix(1 0 0 1 1068 301 )" />
  </g>
</svg>