<?xml version="1.0" encoding="utf-8"?>
<svg version="1.1" xmlns:xlink="http://www.w3.org/1999/xlink" width="10px" height="11px" xmlns="http://www.w3.org/2000/svg">
  <g transform="matrix(1 0 0 1 -1203 -312 )">
    <path d="M 7.68531468531469 5.5  L 9.54545454545455 6.60286458333333  C 9.75990675990676 6.72699652777778  9.8986013986014 6.91200086805555  9.96153846153846 7.15787760416667  C 10.0244755244755 7.40375434027778  9.995337995338 7.63650173611111  9.87412587412587 7.85611979166667  L 9.42657342657343 8.64388020833333  C 9.30536130536131 8.86349826388889  9.12470862470863 9.00553385416667  8.88461538461538 9.06998697916667  C 8.64452214452215 9.13444010416667  8.41724941724942 9.10460069444444  8.2027972027972 8.98046875  L 6.34265734265734 7.884765625  L 6.34265734265734 10.0833333333333  C 6.34265734265734 10.3315972222222  6.25407925407925 10.5464409722222  6.07692307692308 10.7278645833333  C 5.8997668997669 10.9092881944444  5.68997668997669 11  5.44755244755245 11  L 4.55244755244755 11  C 4.31002331002331 11  4.1002331002331 10.9092881944444  3.92307692307692 10.7278645833333  C 3.74592074592075 10.5464409722222  3.65734265734266 10.3315972222222  3.65734265734266 10.0833333333333  L 3.65734265734266 7.884765625  L 1.7972027972028 8.98046875  C 1.58275058275058 9.10460069444444  1.35547785547786 9.13444010416667  1.11538461538462 9.06998697916667  C 0.875291375291375 9.00553385416667  0.694638694638695 8.86349826388889  0.573426573426573 8.64388020833333  L 0.125874125874126 7.85611979166667  C 0.0046620046620047 7.63650173611111  -0.0244755244755245 7.40375434027778  0.0384615384615385 7.15787760416667  C 0.101398601398601 6.91200086805555  0.24009324009324 6.72699652777778  0.454545454545455 6.60286458333333  L 2.31468531468531 5.5  L 0.454545454545455 4.39713541666667  C 0.24009324009324 4.27300347222222  0.101398601398601 4.08799913194444  0.0384615384615385 3.84212239583333  C -0.0244755244755245 3.59624565972222  0.0046620046620047 3.36349826388889  0.125874125874126 3.14388020833333  L 0.573426573426573 2.35611979166667  C 0.694638694638695 2.13650173611111  0.875291375291375 1.99446614583333  1.11538461538462 1.93001302083333  C 1.35547785547786 1.86555989583333  1.58275058275058 1.89539930555555  1.7972027972028 2.01953125  L 3.65734265734266 3.115234375  L 3.65734265734266 0.916666666666667  C 3.65734265734266 0.668402777777777  3.74592074592075 0.453559027777777  3.92307692307692 0.272135416666667  C 4.1002331002331 0.0907118055555545  4.31002331002331 0  4.55244755244755 0  L 5.44755244755245 0  C 5.68997668997669 0  5.8997668997669 0.0907118055555545  6.07692307692308 0.272135416666667  C 6.25407925407925 0.453559027777777  6.34265734265734 0.668402777777777  6.34265734265734 0.916666666666667  L 6.34265734265734 3.115234375  L 8.2027972027972 2.01953125  C 8.41724941724942 1.89539930555555  8.64452214452215 1.86555989583333  8.88461538461538 1.93001302083333  C 9.12470862470863 1.99446614583333  9.30536130536131 2.13650173611111  9.42657342657343 2.35611979166667  L 9.87412587412587 3.14388020833333  C 9.995337995338 3.36349826388889  10.0244755244755 3.59624565972222  9.96153846153846 3.84212239583333  C 9.8986013986014 4.08799913194444  9.75990675990676 4.27300347222222  9.54545454545455 4.39713541666667  L 7.68531468531469 5.5  Z " fill-rule="nonzero" fill="#000000" stroke="none" transform="matrix(1 0 0 1 1203 312 )" />
  </g>
</svg>