<?xml version="1.0" encoding="utf-8"?>
<svg version="1.1" xmlns:xlink="http://www.w3.org/1999/xlink" width="86px" height="96px" xmlns="http://www.w3.org/2000/svg">
  <g transform="matrix(1 0 0 1 -907 -183 )">
    <path d="M 907 183  L 993 183  L 993 279  L 907 279  L 907 183  " fill-rule="nonzero" fill="#cccccc" stroke="none" />
    <path d="M 913 189  L 987 189  L 987 273  L 913 273  L 913 189  " fill-rule="nonzero" fill="#ffffff" stroke="none" />
    <path d="M 958.17 210.3  C 954.558 210.3  951.72 207.462  951.72 203.85  C 951.72 200.238  954.558 197.4  958.17 197.4  C 961.782 197.4  964.62 200.238  964.62 203.85  C 964.62 207.462  961.782 210.3  958.17 210.3  " fill-rule="nonzero" fill="#cccccc" stroke="none" />
    <path d="M 915 271  L 915 227  L 932.5 207  L 957 223  L 971 219  L 985 223  L 985 271  L 915 271  " fill-rule="nonzero" fill="#169bd5" stroke="none" />
  </g>
</svg>