<?xml version="1.0" encoding="utf-8"?>
<svg version="1.1" xmlns:xlink="http://www.w3.org/1999/xlink" width="25px" height="25px" xmlns="http://www.w3.org/2000/svg">
  <g transform="matrix(1 0 0 1 -706 -257 )">
    <path d="M 718.5 257  C 725.5 257  731 262.5  731 269.5  C 731 276.5  725.5 282  718.5 282  C 711.5 282  706 276.5  706 269.5  C 706 262.5  711.5 257  718.5 257  Z " fill-rule="nonzero" fill="#ffffff" stroke="none" />
    <path d="M 718.5 257.5  C 725.22 257.5  730.5 262.78  730.5 269.5  C 730.5 276.22  725.22 281.5  718.5 281.5  C 711.78 281.5  706.5 276.22  706.5 269.5  C 706.5 262.78  711.78 257.5  718.5 257.5  Z " stroke-width="1" stroke="#797979" fill="none" />
  </g>
</svg>