<?xml version="1.0" encoding="utf-8"?>
<svg version="1.1" xmlns:xlink="http://www.w3.org/1999/xlink" width="18px" height="14px" xmlns="http://www.w3.org/2000/svg">
  <g transform="matrix(1 0 0 1 -335 -215 )">
    <path d="M 17.6748387096777 1.93265993266004  C 17.8916129032259 2.1526374859709  18 2.41975308641986  18 2.73400673400693  C 18 3.04826038159354  17.8916129032259 3.3153759820425  17.6748387096777 3.53535353535335  L 9.26709677419331 12.06734006734  L 7.68774193548416 13.6700336700337  C 7.47096774193506 13.8900112233446  7.20774193548368 14  6.89806451612913 14  C 6.58838709677457 14  6.32516129032228 13.8900112233446  6.1083870967741 13.6700336700337  L 4.52903225806494 12.06734006734  L 0.325161290322285 7.80134680134688  C 0.108387096774095 7.58136924803603  0 7.31425364758706  0 7  C 0 6.68574635241293  0.108387096774095 6.41863075196397  0.325161290322285 6.19865319865312  L 1.90451612903234 4.59595959595981  C 2.12129032258053 4.3759820426485  2.38451612903191 4.26599326599307  2.69419354838737 4.26599326599307  C 3.00387096774193 4.26599326599307  3.26709677419331 4.3759820426485  3.4838709677415 4.59595959595981  L 6.89806451612913 8.07239057239076  L 14.5161290322585 0.329966329966283  C 14.7329032258067 0.109988776655428  14.9961290322581 0  15.3058064516126 0  C 15.6154838709681 0  15.8787096774195 0.109988776655428  16.0954838709677 0.329966329966283  L 17.6748387096777 1.93265993266004  Z " fill-rule="nonzero" fill="#000000" stroke="none" transform="matrix(1 0 0 1 335 215 )" />
  </g>
</svg>