<?xml version="1.0" encoding="utf-8"?>
<svg version="1.1" xmlns:xlink="http://www.w3.org/1999/xlink" width="155px" height="72px" xmlns="http://www.w3.org/2000/svg">
  <g transform="matrix(1 0 0 1 -204 -196 )">
    <path d="M 204 196  L 359 196  L 359 268  L 204 268  L 204 196  " fill-rule="nonzero" fill="#cccccc" stroke="none" />
    <path d="M 209 201  L 354 201  L 354 263  L 209 263  L 209 201  " fill-rule="nonzero" fill="#ffffff" stroke="none" />
    <path d="M 290 217.6  C 286.976 217.6  284.6 215.224  284.6 212.2  C 284.6 209.176  286.976 206.8  290 206.8  C 293.024 206.8  295.4 209.176  295.4 212.2  C 295.4 215.224  293.024 217.6  290 217.6  " fill-rule="nonzero" fill="#cccccc" stroke="none" />
    <path d="M 211 261  L 211 229.1  L 246.25 214.6  L 295.6 244.834838709677  L 323.8 223.3  L 352 244.834838709677  L 352 261  L 211 261  " fill-rule="nonzero" fill="#169bd5" stroke="none" />
  </g>
</svg>