<?xml version="1.0" encoding="utf-8"?>
<svg version="1.1" xmlns:xlink="http://www.w3.org/1999/xlink" width="155px" height="72px" xmlns="http://www.w3.org/2000/svg">
  <g transform="matrix(1 0 0 1 -16 -196 )">
    <path d="M 16 196  L 171 196  L 171 268  L 16 268  L 16 196  " fill-rule="nonzero" fill="#cccccc" stroke="none" />
    <path d="M 21 201  L 166 201  L 166 263  L 21 263  L 21 201  " fill-rule="nonzero" fill="#ffffff" stroke="none" />
    <path d="M 102 217.6  C 98.976 217.6  96.6 215.224  96.6 212.2  C 96.6 209.176  98.976 206.8  102 206.8  C 105.024 206.8  107.4 209.176  107.4 212.2  C 107.4 215.224  105.024 217.6  102 217.6  " fill-rule="nonzero" fill="#cccccc" stroke="none" />
    <path d="M 23 261  L 23 229.1  L 58.25 214.6  L 107.6 244.834838709677  L 135.8 223.3  L 164 244.834838709677  L 164 261  L 23 261  " fill-rule="nonzero" fill="#169bd5" stroke="none" />
  </g>
</svg>