<?xml version="1.0" encoding="utf-8"?>
<svg version="1.1" xmlns:xlink="http://www.w3.org/1999/xlink" width="18px" height="18px" xmlns="http://www.w3.org/2000/svg">
  <g transform="matrix(1 0 0 1 -346 -143 )">
    <path d="M 355 143  C 360.04 143  364 146.96  364 152  C 364 157.04  360.04 161  355 161  C 349.96 161  346 157.04  346 152  C 346 146.96  349.96 143  355 143  Z " fill-rule="nonzero" fill="#ffffff" stroke="none" />
    <path d="M 355 143.5  C 359.76 143.5  363.5 147.24  363.5 152  C 363.5 156.76  359.76 160.5  355 160.5  C 350.24 160.5  346.5 156.76  346.5 152  C 346.5 147.24  350.24 143.5  355 143.5  Z " stroke-width="1" stroke="#797979" fill="none" />
  </g>
</svg>