<?xml version="1.0" encoding="utf-8"?>
<svg version="1.1" xmlns:xlink="http://www.w3.org/1999/xlink" width="18px" height="18px" xmlns="http://www.w3.org/2000/svg">
  <g transform="matrix(1 0 0 1 -1299 -261 )">
    <path d="M 18 9  C 18 4.03800000000001  13.962 0  9 0  C 4.03725000000009 0  0 4.03800000000001  0 9  C 0 13.962  4.03725000000009 18  9 18  C 13.962 18  18 13.962  18 9  Z M 13.0237500000001 6.11850000000004  C 13.16625 6.26999999999998  13.15725 6.50774999999999  13.0057499999998 6.64949999999999  L 7.38074999999981 11.8995  C 7.30874999999992 11.9662499999999  7.2165 12  7.125 12  C 7.02825000000007 12  6.93299999999999 11.96325  6.85950000000003 11.8905  L 4.98450000000003 10.0155  C 4.83825000000002 9.87000000000012  4.83825000000002 9.63149999999996  4.98450000000003 9.48524999999995  C 5.13074999999981 9.33975000000009  5.36850000000004 9.33975000000009  5.51475000000005 9.48524999999995  L 7.13324999999986 11.10375  L 12.4935 6.10124999999994  C 12.6442499999998 5.96024999999986  12.8820000000001 5.96699999999987  13.0237500000001 6.11850000000004  Z " fill-rule="nonzero" fill="#000000" stroke="none" transform="matrix(1 0 0 1 1299 261 )" />
  </g>
</svg>