<?xml version="1.0" encoding="utf-8"?>
<svg version="1.1" xmlns:xlink="http://www.w3.org/1999/xlink" width="10px" height="10px" xmlns="http://www.w3.org/2000/svg">
  <g transform="matrix(1 0 0 1 -116 -845 )">
    <path d="M 6.83293269230769 6.12476370510397  L 7.12740384615385 5.82860743541273  L 8.671875 4.25330812854442  L 6.53245192307692 3.92564587271582  L 6.13581730769231 3.86263390044108  L 5.95552884615385 3.48456206679269  L 5 1.45557655954631  L 5 7.52362948960302  L 5.35456730769231 7.71896660365469  L 7.265625 8.7775677378702  L 6.90504807692308 6.5406427221172  L 6.83293269230769 6.12476370510397  Z M 9.98798076923077 3.80277252678009  C 10.0240384615385 3.91829447595043  9.97596153846154 4.04326822096198  9.84375 4.17769376181474  L 7.66225961538462 6.40831758034027  L 8.17908653846154 9.55891619407687  C 8.19911858974359 9.69754253308129  8.18709935897436 9.80571308548624  8.14302884615385 9.88342785129175  C 8.09895833333333 9.96114261709725  8.03084935897436 10  7.93870192307692 10  C 7.87059294871795 10  7.79046474358974 9.97479521109011  7.69831730769231 9.92438563327032  L 5 8.43730308758664  L 2.30168269230769 9.92438563327032  C 2.20953525641026 9.97479521109011  2.12940705128205 10  2.06129807692308 10  C 1.96915064102564 10  1.90104166666667 9.96114261709725  1.85697115384615 9.88342785129175  C 1.81290064102564 9.80571308548624  1.80088141025641 9.69754253308129  1.82091346153846 9.55891619407687  L 2.33774038461538 6.40831758034027  L 0.150240384615385 4.17769376181474  C 0.0220352564102564 4.04326822096198  -0.0240384615384615 3.91829447595043  0.0120192307692308 3.80277252678009  C 0.0480769230769231 3.68725057760975  0.15625 3.6147868094938  0.336538461538462 3.58538122243226  L 3.35336538461538 3.12539382482672  L 4.70552884615385 0.258349086326402  C 4.78565705128205 0.0861163621088001  4.8838141025641 0  5 0  C 5.11217948717949 0  5.21033653846154 0.0861163621088001  5.29447115384615 0.258349086326402  L 6.64663461538462 3.12539382482672  L 9.66346153846154 3.58538122243226  C 9.84375 3.6147868094938  9.95192307692308 3.68725057760975  9.98798076923077 3.80277252678009  Z " fill-rule="nonzero" fill="#000000" stroke="none" transform="matrix(1 0 0 1 116 845 )" />
  </g>
</svg>