<?xml version="1.0" encoding="utf-8"?>
<svg version="1.1" xmlns:xlink="http://www.w3.org/1999/xlink" width="12px" height="12px" viewBox="1814 463  12 12" xmlns="http://www.w3.org/2000/svg">
  <path d="M 1820 463  C 1823.36 463  1826 465.64  1826 469  C 1826 472.36  1823.36 475  1820 475  C 1816.64 475  1814 472.36  1814 469  C 1814 465.64  1816.64 463  1820 463  Z " fill-rule="nonzero" fill="#ffffff" stroke="none" />
  <path d="M 1820 463.5  C 1823.08 463.5  1825.5 465.92  1825.5 469  C 1825.5 472.08  1823.08 474.5  1820 474.5  C 1816.92 474.5  1814.5 472.08  1814.5 469  C 1814.5 465.92  1816.92 463.5  1820 463.5  Z " stroke-width="1" stroke="#797979" fill="none" />
  <path d="M 1820 472  C 1818.32 472  1817 470.68  1817 469  C 1817 467.32  1818.32 466  1820 466  C 1821.68 466  1823 467.32  1823 469  C 1823 470.68  1821.68 472  1820 472  " fill-rule="nonzero" fill="#797979" stroke="none" />
</svg>