<?xml version="1.0" encoding="utf-8"?>
<svg version="1.1" xmlns:xlink="http://www.w3.org/1999/xlink" width="16px" height="12px" xmlns="http://www.w3.org/2000/svg">
  <g transform="matrix(1 0 0 1 -774 -1424 )">
    <path d="M 13.1785714285714 6.4375  C 14.297619047619 5.45833333333333  14.8571428571429 4.53125  14.8571428571429 3.65625  C 14.8571428571429 3.234375  14.7931547619048 2.86197916666667  14.6651785714286 2.5390625  C 14.5372023809524 2.21614583333333  14.3735119047619 1.95963541666667  14.1741071428571 1.76953125  C 13.9747023809524 1.57942708333333  13.7321428571429 1.42447916666667  13.4464285714286 1.3046875  C 13.1607142857143 1.18489583333333  12.8809523809524 1.10416666666667  12.6071428571429 1.0625  C 12.3333333333333 1.02083333333333  12.0416666666667 1  11.7321428571429 1  C 11.422619047619 1  11.0892857142857 1.06640625  10.7321428571429 1.19921875  C 10.375 1.33203125  10.046130952381 1.49869791666667  9.74553571428571 1.69921875  C 9.44494047619048 1.89973958333333  9.1875 2.08723958333333  8.97321428571429 2.26171875  C 8.75892857142857 2.43619791666667  8.58035714285714 2.59635416666667  8.4375 2.7421875  C 8.33035714285714 2.85677083333333  8.18452380952381 2.9140625  8 2.9140625  C 7.81547619047619 2.9140625  7.66964285714286 2.85677083333333  7.5625 2.7421875  C 7.41964285714286 2.59635416666667  7.24107142857143 2.43619791666667  7.02678571428571 2.26171875  C 6.8125 2.08723958333333  6.55505952380952 1.89973958333333  6.25446428571429 1.69921875  C 5.95386904761905 1.49869791666667  5.625 1.33203125  5.26785714285714 1.19921875  C 4.91071428571429 1.06640625  4.57738095238095 1  4.26785714285714 1  C 3.95833333333333 1  3.66666666666667 1.02083333333333  3.39285714285714 1.0625  C 3.11904761904762 1.10416666666667  2.83928571428571 1.18489583333333  2.55357142857143 1.3046875  C 2.26785714285714 1.42447916666667  2.02529761904762 1.57942708333333  1.82589285714286 1.76953125  C 1.6264880952381 1.95963541666667  1.46279761904762 2.21614583333333  1.33482142857143 2.5390625  C 1.20684523809524 2.86197916666667  1.14285714285714 3.234375  1.14285714285714 3.65625  C 1.14285714285714 4.53125  1.69940476190476 5.45572916666667  2.8125 6.4296875  L 8 10.8046875  L 13.1785714285714 6.4375  Z M 14.8660714285714 0.96875  C 15.6220238095238 1.61458333333333  16 2.51041666666667  16 3.65625  C 16 4.80729166666667  15.3184523809524 5.97916666666667  13.9553571428571 7.171875  L 8.39285714285714 11.859375  C 8.28571428571429 11.953125  8.15476190476191 12  8 12  C 7.8452380952381 12  7.71428571428572 11.953125  7.60714285714286 11.859375  L 2.03571428571429 7.15625  C 1.97619047619048 7.11458333333333  1.89434523809524 7.046875  1.79017857142857 6.953125  C 1.6860119047619 6.859375  1.52083333333333 6.68880208333333  1.29464285714286 6.44140625  C 1.06845238095238 6.19401041666667  0.866071428571429 5.94010416666667  0.6875 5.6796875  C 0.508928571428571 5.41927083333333  0.349702380952381 5.10416666666667  0.209821428571429 4.734375  C 0.0699404761904762 4.36458333333333  0 4.00520833333333  0 3.65625  C 0 2.51041666666667  0.37797619047619 1.61458333333333  1.13392857142857 0.96875  C 1.88988095238095 0.322916666666667  2.93452380952381 0  4.26785714285714 0  C 4.63690476190476 0  5.01339285714286 0.0559895833333326  5.39732142857143 0.16796875  C 5.78125 0.279947916666666  6.13839285714286 0.430989583333333  6.46875 0.62109375  C 6.79910714285714 0.811197916666666  7.08333333333333 0.989583333333332  7.32142857142857 1.15625  C 7.55952380952381 1.32291666666667  7.78571428571429 1.5  8 1.6875  C 8.21428571428571 1.5  8.44047619047619 1.32291666666667  8.67857142857143 1.15625  C 8.91666666666667 0.989583333333332  9.20089285714286 0.811197916666666  9.53125 0.62109375  C 9.86160714285714 0.430989583333333  10.21875 0.279947916666666  10.6026785714286 0.16796875  C 10.9866071428571 0.0559895833333326  11.3630952380952 0  11.7321428571429 0  C 13.0654761904762 0  14.110119047619 0.322916666666667  14.8660714285714 0.96875  Z " fill-rule="nonzero" fill="#333333" stroke="none" transform="matrix(1 0 0 1 774 1424 )" />
  </g>
</svg>