<?xml version="1.0" encoding="utf-8"?>
<svg version="1.1" xmlns:xlink="http://www.w3.org/1999/xlink" width="12px" height="10px" xmlns="http://www.w3.org/2000/svg">
  <g transform="matrix(1 0 0 1 -33 -579 )">
    <path d="M 5.40144230769231 0.857946554149086  C 5.49278846153846 0.947022972339427  5.53846153846154 1.05250820440694  5.53846153846154 1.17440225035162  L 5.53846153846154 8.82559774964838  C 5.53846153846154 8.94749179559306  5.49278846153846 9.05297702766057  5.40144230769231 9.14205344585091  C 5.31009615384615 9.23112986404126  5.20192307692308 9.27566807313643  5.07692307692308 9.27566807313643  C 4.95192307692308 9.27566807313643  4.84375 9.23112986404126  4.75240384615385 9.14205344585091  L 2.35096153846154 6.80028129395218  L 0.461538461538462 6.80028129395218  C 0.336538461538462 6.80028129395218  0.228365384615385 6.75574308485701  0.137019230769231 6.66666666666667  C 0.0456730769230769 6.57759024847632  0 6.47210501640881  0 6.35021097046414  L 0 3.64978902953586  C 0 3.52789498359119  0.0456730769230769 3.42240975152367  0.137019230769231 3.33333333333333  C 0.228365384615385 3.24425691514299  0.336538461538462 3.19971870604782  0.461538461538462 3.19971870604782  L 2.35096153846154 3.19971870604782  L 4.75240384615385 0.857946554149086  C 4.84375 0.768870135958744  4.95192307692308 0.724331926863573  5.07692307692308 0.724331926863573  C 5.20192307692308 0.724331926863573  5.31009615384615 0.768870135958744  5.40144230769231 0.857946554149086  Z M 8.00120192307692 4.0014064697609  C 8.20552884615385 4.31082981715893  8.30769230769231 4.64369432723863  8.30769230769231 5  C 8.30769230769231 5.35630567276137  8.20552884615385 5.68799812470699  8.00120192307692 5.99507735583685  C 7.796875 6.30215658696671  7.52644230769231 6.52133145804032  7.18990384615385 6.65260196905767  C 7.14182692307693 6.67604313173933  7.08173076923077 6.68776371308017  7.00961538461539 6.68776371308017  C 6.88461538461539 6.68776371308017  6.77644230769231 6.64439756211908  6.68509615384615 6.55766526019691  C 6.59375 6.47093295827473  6.54807692307692 6.36427566807314  6.54807692307692 6.23769338959212  C 6.54807692307692 6.13924050632911  6.57692307692308 6.05602437880919  6.63461538461539 5.98804500703235  C 6.69230769230769 5.92006563525551  6.76201923076923 5.86146272855134  6.84375 5.81223628691983  C 6.92548076923077 5.76300984528833  7.00721153846154 5.70909517112049  7.08894230769231 5.65049226441632  C 7.17067307692308 5.59188935771214  7.24038461538462 5.50750117205813  7.29807692307692 5.39732770745429  C 7.35576923076923 5.28715424285044  7.38461538461539 5.15471167369902  7.38461538461539 5  C 7.38461538461539 4.84528832630098  7.35576923076923 4.71284575714955  7.29807692307692 4.60267229254571  C 7.24038461538462 4.49249882794187  7.17067307692308 4.40811064228786  7.08894230769231 4.34950773558369  C 7.00721153846154 4.29090482887951  6.92548076923077 4.23699015471167  6.84375 4.18776371308017  C 6.76201923076923 4.13853727144866  6.69230769230769 4.07993436474449  6.63461538461539 4.01195499296765  C 6.57692307692308 3.94397562119081  6.54807692307692 3.86075949367089  6.54807692307692 3.76230661040788  C 6.54807692307692 3.63572433192686  6.59375 3.52906704172527  6.68509615384615 3.44233473980309  C 6.77644230769231 3.35560243788092  6.88461538461539 3.31223628691983  7.00961538461539 3.31223628691983  C 7.08173076923077 3.31223628691983  7.14182692307693 3.32395686826067  7.18990384615385 3.34739803094233  C 7.52644230769231 3.47398030942335  7.796875 3.69198312236287  8.00120192307692 4.0014064697609  Z M 9.54086538461539 3.01336146272855  C 9.94951923076923 3.62048757618378  10.1538461538462 4.28270042194093  10.1538461538462 5  C 10.1538461538462 5.71729957805907  9.94951923076923 6.37951242381622  9.54086538461539 6.98663853727145  C 9.13221153846154 7.59376465072668  8.59134615384616 8.03563056727613  7.91826923076923 8.31223628691983  C 7.85576923076923 8.3356774496015  7.79567307692308 8.34739803094234  7.73798076923077 8.34739803094234  C 7.60817307692308 8.34739803094234  7.49759615384615 8.30285982184716  7.40625 8.21378340365682  C 7.31490384615385 8.12470698546648  7.26923076923077 8.01922175339897  7.26923076923077 7.89732770745429  C 7.26923076923077 7.71448663853727  7.36298076923077 7.57618377871542  7.55048076923077 7.48241912798875  C 7.81971153846154 7.34646038443507  8.00240384615385 7.24331926863572  8.09855769230769 7.17299578059072  C 8.45432692307693 6.91983122362869  8.73197115384616 6.60220346929208  8.93149038461539 6.22011251758087  C 9.13100961538462 5.83802156586967  9.23076923076923 5.43131739334271  9.23076923076923 5  C 9.23076923076923 4.56868260665729  9.13100961538462 4.16197843413033  8.93149038461539 3.77988748241913  C 8.73197115384616 3.39779653070792  8.45432692307693 3.08016877637131  8.09855769230769 2.82700421940928  C 8.00240384615385 2.75668073136428  7.81971153846154 2.65353961556493  7.55048076923077 2.51758087201125  C 7.36298076923077 2.42381622128458  7.26923076923077 2.28551336146273  7.26923076923077 2.10267229254571  C 7.26923076923077 1.98077824660103  7.31490384615385 1.87529301453352  7.40625 1.78621659634318  C 7.49759615384615 1.69714017815284  7.60576923076923 1.65260196905767  7.73076923076923 1.65260196905767  C 7.79326923076923 1.65260196905767  7.85576923076923 1.6643225503985  7.91826923076923 1.68776371308017  C 8.59134615384616 1.96436943272386  9.13221153846154 2.40623534927332  9.54086538461539 3.01336146272855  Z M 11.0841346153846 2.02883263009845  C 11.6947115384615 2.93131739334271  12 3.92170651664322  12 5  C 12 6.07829348335677  11.6947115384615 7.06868260665729  11.0841346153846 7.97116736990155  C 10.4735576923077 8.8736521331458  9.66105769230769 9.53820909517112  8.64663461538462 9.9648382559775  C 8.58413461538462 9.98827941865916  8.52163461538462 10  8.45913461538462 10  C 8.33413461538462 10  8.22596153846154 9.95546179090483  8.13461538461539 9.86638537271449  C 8.04326923076923 9.77730895452414  7.99759615384615 9.67182372245663  7.99759615384615 9.54992967651195  C 7.99759615384615 9.38115330520394  8.09134615384615 9.24285044538209  8.27884615384615 9.13502109704641  C 8.3125 9.11626816690108  8.36658653846154 9.09165494608533  8.44110576923077 9.06118143459916  C 8.515625 9.03070792311299  8.56971153846154 9.00609470229723  8.60336538461539 8.9873417721519  C 8.82451923076923 8.87013595874355  9.02163461538462 8.75058602906704  9.19471153846154 8.62869198312236  C 9.78605769230769 8.20206282231599  10.2475961538462 7.6699484294421  10.5793269230769 7.0323488045007  C 10.9110576923077 6.39474917955931  11.0769230769231 5.71729957805907  11.0769230769231 5  C 11.0769230769231 4.28270042194093  10.9110576923077 3.60525082044069  10.5793269230769 2.9676511954993  C 10.2475961538462 2.3300515705579  9.78605769230769 1.79793717768401  9.19471153846154 1.37130801687764  C 9.02163461538462 1.24941397093296  8.82451923076923 1.12986404125645  8.60336538461539 1.0126582278481  C 8.56971153846154 0.993905297702765  8.515625 0.969292076887013  8.44110576923077 0.938818565400844  C 8.36658653846154 0.908345053914673  8.3125 0.883731833098921  8.27884615384615 0.864978902953587  C 8.09134615384615 0.757149554617907  7.99759615384615 0.618846694796061  7.99759615384615 0.450070323488045  C 7.99759615384615 0.328176277543365  8.04326923076923 0.222691045475855  8.13461538461539 0.133614627285513  C 8.22596153846154 0.0445382090951707  8.33413461538462 0  8.45913461538462 0  C 8.52163461538462 0  8.58413461538462 0.0117205813408339  8.64663461538462 0.0351617440225038  C 9.66105769230769 0.461790904828878  10.4735576923077 1.12634786685419  11.0841346153846 2.02883263009845  Z " fill-rule="nonzero" fill="#d7d7d7" stroke="none" transform="matrix(1 0 0 1 33 579 )" />
  </g>
</svg>