<?xml version="1.0" encoding="utf-8"?>
<svg version="1.1" xmlns:xlink="http://www.w3.org/1999/xlink" width="21px" height="16px" xmlns="http://www.w3.org/2000/svg">
  <g transform="matrix(1 0 0 1 -1269 -2184 )">
    <path d="M 17.296875 8.58333333333333  C 18.765625 7.27777777777778  19.5 6.04166666666667  19.5 4.875  C 19.5 4.3125  19.416015625 3.81597222222222  19.248046875 3.38541666666667  C 19.080078125 2.95486111111111  18.865234375 2.61284722222222  18.603515625 2.359375  C 18.341796875 2.10590277777778  18.0234375 1.89930555555556  17.6484375 1.73958333333333  C 17.2734375 1.57986111111111  16.90625 1.47222222222222  16.546875 1.41666666666667  C 16.1875 1.36111111111111  15.8046875 1.33333333333333  15.3984375 1.33333333333333  C 14.9921875 1.33333333333333  14.5546875 1.421875  14.0859375 1.59895833333333  C 13.6171875 1.77604166666667  13.185546875 1.99826388888889  12.791015625 2.265625  C 12.396484375 2.53298611111111  12.05859375 2.78298611111111  11.77734375 3.015625  C 11.49609375 3.24826388888889  11.26171875 3.46180555555556  11.07421875 3.65625  C 10.93359375 3.80902777777778  10.7421875 3.88541666666667  10.5 3.88541666666667  C 10.2578125 3.88541666666667  10.06640625 3.80902777777778  9.92578125 3.65625  C 9.73828125 3.46180555555556  9.50390625 3.24826388888889  9.22265625 3.015625  C 8.94140625 2.78298611111111  8.603515625 2.53298611111111  8.208984375 2.265625  C 7.814453125 1.99826388888889  7.3828125 1.77604166666667  6.9140625 1.59895833333333  C 6.4453125 1.421875  6.0078125 1.33333333333333  5.6015625 1.33333333333333  C 5.1953125 1.33333333333333  4.8125 1.36111111111111  4.453125 1.41666666666667  C 4.09375 1.47222222222222  3.7265625 1.57986111111111  3.3515625 1.73958333333333  C 2.9765625 1.89930555555556  2.658203125 2.10590277777778  2.396484375 2.359375  C 2.134765625 2.61284722222222  1.919921875 2.95486111111111  1.751953125 3.38541666666667  C 1.583984375 3.81597222222222  1.5 4.3125  1.5 4.875  C 1.5 6.04166666666667  2.23046875 7.27430555555556  3.69140625 8.57291666666667  L 10.5 14.40625  L 17.296875 8.58333333333333  Z M 19.51171875 1.29166666666667  C 20.50390625 2.15277777777778  21 3.34722222222222  21 4.875  C 21 6.40972222222222  20.10546875 7.97222222222222  18.31640625 9.5625  L 11.015625 15.8125  C 10.875 15.9375  10.703125 16  10.5 16  C 10.296875 16  10.125 15.9375  9.984375 15.8125  L 2.671875 9.54166666666667  C 2.59375 9.48611111111111  2.486328125 9.39583333333333  2.349609375 9.27083333333333  C 2.212890625 9.14583333333333  1.99609375 8.91840277777778  1.69921875 8.58854166666667  C 1.40234375 8.25868055555555  1.13671875 7.92013888888889  0.90234375 7.57291666666667  C 0.66796875 7.22569444444444  0.458984375 6.80555555555556  0.275390625 6.3125  C 0.091796875 5.81944444444444  0 5.34027777777778  0 4.875  C 0 3.34722222222222  0.49609375 2.15277777777778  1.48828125 1.29166666666667  C 2.48046875 0.430555555555555  3.8515625 0  5.6015625 0  C 6.0859375 0  6.580078125 0.0746527777777768  7.083984375 0.223958333333334  C 7.587890625 0.373263888888888  8.056640625 0.574652777777777  8.490234375 0.828125  C 8.923828125 1.08159722222222  9.296875 1.31944444444444  9.609375 1.54166666666667  C 9.921875 1.76388888888889  10.21875 2  10.5 2.25  C 10.78125 2  11.078125 1.76388888888889  11.390625 1.54166666666667  C 11.703125 1.31944444444444  12.076171875 1.08159722222222  12.509765625 0.828125  C 12.943359375 0.574652777777777  13.412109375 0.373263888888888  13.916015625 0.223958333333334  C 14.419921875 0.0746527777777768  14.9140625 0  15.3984375 0  C 17.1484375 0  18.51953125 0.430555555555555  19.51171875 1.29166666666667  Z " fill-rule="nonzero" fill="#333333" stroke="none" transform="matrix(1 0 0 1 1269 2184 )" />
  </g>
</svg>