<?xml version="1.0" encoding="utf-8"?>
<svg version="1.1" xmlns:xlink="http://www.w3.org/1999/xlink" width="14px" height="8px" xmlns="http://www.w3.org/2000/svg">
  <g transform="matrix(1 0 0 1 -825 -1462 )">
    <path d="M 13.8515625 5.96212121212132  C 13.9505208333333 6.0580808080808  14 6.17171717171708  14 6.30303030303039  L 14 7.27272727272721  C 14 7.40404040404052  13.9505208333333 7.5176767676768  13.8515625 7.61363636363628  C 13.7526041666667 7.709595959596  13.6354166666666 7.75757575757574  13.5 7.75757575757574  L 0.500000000000009 7.75757575757574  C 0.364583333333354 7.75757575757574  0.247395833333345 7.709595959596  0.148437499999983 7.61363636363628  C 0.0494791666666812 7.5176767676768  0 7.40404040404052  0 7.27272727272721  L 0 6.30303030303039  C 0 6.17171717171708  0.0494791666666812 6.0580808080808  0.148437499999983 5.96212121212132  C 0.247395833333345 5.8661616161616  0.364583333333354 5.81818181818186  0.500000000000009 5.81818181818186  L 13.5 5.81818181818186  C 13.6354166666666 5.81818181818186  13.7526041666667 5.8661616161616  13.8515625 5.96212121212132  Z M 13.8515625 3.05303030303039  C 13.9505208333333 3.14898989898987  14 3.26262626262614  14 3.39393939393946  L 14 4.36363636363628  C 14 4.49494949494959  13.9505208333333 4.60858585858587  13.8515625 4.70454545454534  C 13.7526041666667 4.80050505050507  13.6354166666666 4.8484848484848  13.5 4.8484848484848  L 0.500000000000009 4.8484848484848  C 0.364583333333354 4.8484848484848  0.247395833333345 4.80050505050507  0.148437499999983 4.70454545454534  C 0.0494791666666812 4.60858585858587  0 4.49494949494959  0 4.36363636363628  L 0 3.39393939393946  C 0 3.26262626262614  0.0494791666666812 3.14898989898987  0.148437499999983 3.05303030303039  C 0.247395833333345 2.95707070707067  0.364583333333354 2.90909090909093  0.500000000000009 3  L 13.5 3  C 13.6354166666666 2.90909090909093  13.7526041666667 2.95707070707067  13.8515625 3.05303030303039  Z M 13.8515625 0.14393939393946  C 13.9505208333333 0.239898989898938  14 0.353535353535456  14 0.484848484848529  L 14 1.45454545454534  C 14 1.58585858585866  13.9505208333333 1.69949494949493  13.8515625 1.79545454545466  C 13.7526041666667 1.89141414141413  13.6354166666666 1.93939393939387  13.5 2  L 0.500000000000009 2  C 0.364583333333354 1.93939393939387  0.247395833333345 1.89141414141413  0.148437499999983 1.79545454545466  C 0.0494791666666812 1.69949494949493  0 1.58585858585866  0 1.45454545454534  L 0 0.484848484848529  C 0 0.353535353535456  0.0494791666666812 0.239898989898938  0.148437499999983 0.14393939393946  C 0.247395833333345 0.0479797979797392  0.364583333333354 0  0.500000000000009 0  L 13.5 0  C 13.6354166666666 0  13.7526041666667 0.0479797979797392  13.8515625 0.14393939393946  Z " fill-rule="nonzero" fill="#ffffff" stroke="none" transform="matrix(1 0 0 1 825 1462 )" />
  </g>
</svg>