<?xml version="1.0" encoding="utf-8"?>
<svg version="1.1" xmlns:xlink="http://www.w3.org/1999/xlink" width="34px" height="34px" xmlns="http://www.w3.org/2000/svg">
  <g transform="matrix(1 0 0 1 -106 -30 )">
    <path d="M 26.3411458333333 14.1666666666665  C 26.3411458333333 14.5503472222222  26.2009548611111 14.8823784722222  25.9205729166667 15.1627604166665  L 16.5794270833333 24.50390625  C 16.2990451388889 24.7842881944443  15.9670138888889 24.9244791666665  15.5833333333333 24.9244791666665  C 15.1996527777778 24.9244791666665  14.8676215277778 24.7842881944443  14.5872395833333 24.50390625  L 8.07942708333326 17.99609375  C 7.79904513888891 17.7157118055557  7.65885416666674 17.3836805555557  7.65885416666674 17  C 7.65885416666674 16.6163194444443  7.79904513888891 16.2842881944443  8.07942708333326 16.00390625  L 10.3372395833333 13.74609375  C 10.6176215277778 13.4657118055557  10.9496527777778 13.3255208333335  11.3333333333333 13.3255208333335  C 11.7170138888889 13.3255208333335  12.0490451388889 13.4657118055557  12.3294270833333 13.74609375  L 15.5833333333333 17  L 21.6705729166667 10.9127604166665  C 21.9509548611111 10.6323784722222  22.2829861111111 10.4921875  22.6666666666667 10.4921875  C 23.0503472222222 10.4921875  23.3823784722222 10.6323784722222  23.6627604166667 10.9127604166665  L 25.9205729166667 13.1705729166665  C 26.2009548611111 13.4509548611113  26.3411458333333 13.7829861111113  26.3411458333333 14.1666666666665  Z M 27.42578125 23.04296875  C 28.5030381944443 21.1983506944443  29.0416666666667 19.1840277777778  29.0416666666667 17  C 29.0416666666667 14.8159722222222  28.5030381944443 12.8016493055557  27.42578125 10.95703125  C 26.3485243055557 9.11241319444434  24.8875868055557 7.65147569444434  23.04296875 6.57421875  C 21.1983506944443 5.49696180555566  19.1840277777778 4.95833333333348  17 4.95833333333348  C 14.8159722222222 4.95833333333348  12.8016493055557 5.49696180555566  10.95703125 6.57421875  C 9.11241319444434 7.65147569444434  7.65147569444434 9.11241319444434  6.57421875 10.95703125  C 5.49696180555566 12.8016493055557  4.95833333333326 14.8159722222222  4.95833333333326 17  C 4.95833333333326 19.1840277777778  5.49696180555566 21.1983506944443  6.57421875 23.04296875  C 7.65147569444434 24.8875868055557  9.11241319444434 26.3485243055557  10.95703125 27.42578125  C 12.8016493055557 28.5030381944443  14.8159722222222 29.0416666666665  17 29.0416666666665  C 19.1840277777778 29.0416666666665  21.1983506944443 28.5030381944443  23.04296875 27.42578125  C 24.8875868055557 26.3485243055557  26.3485243055557 24.8875868055557  27.42578125 23.04296875  Z M 31.7200520833333 8.466796875  C 33.2400173611111 11.0713975694443  34 13.9157986111113  34 17  C 34 20.0842013888887  33.2400173611111 22.9286024305557  31.7200520833333 25.533203125  C 30.2000868055557 28.1378038194443  28.1378038194443 30.2000868055557  25.533203125 31.7200520833335  C 22.9286024305557 33.2400173611113  20.0842013888889 34  17 34  C 13.9157986111111 34  11.0713975694443 33.2400173611113  8.466796875 31.7200520833335  C 5.86219618055566 30.2000868055557  3.79991319444434 28.1378038194443  2.27994791666674 25.533203125  C 0.759982638888914 22.9286024305557  0 20.0842013888887  0 17  C 0 13.9157986111113  0.759982638888914 11.0713975694443  2.27994791666674 8.466796875  C 3.79991319444434 5.86219618055566  5.86219618055566 3.79991319444434  8.466796875 2.27994791666652  C 11.0713975694443 0.759982638888687  13.9157986111111 0  17 0  C 20.0842013888889 0  22.9286024305557 0.759982638888687  25.533203125 2.27994791666652  C 28.1378038194443 3.79991319444434  30.2000868055557 5.86219618055566  31.7200520833333 8.466796875  Z " fill-rule="nonzero" fill="#000000" stroke="none" transform="matrix(1 0 0 1 106 30 )" />
  </g>
</svg>