<?xml version="1.0" encoding="utf-8"?>
<svg version="1.1" xmlns:xlink="http://www.w3.org/1999/xlink" width="44px" height="44px" xmlns="http://www.w3.org/2000/svg">
  <g transform="matrix(1 0 0 1 -7 -110 )">
    <path d="M 29 110  C 41.32 110  51 119.68  51 132  C 51 144.32  41.32 154  29 154  C 16.68 154  7 144.32  7 132  C 7 119.68  16.68 110  29 110  Z " fill-rule="nonzero" fill="#666666" stroke="none" />
    <path d="M 29 110.5  C 41.04 110.5  50.5 119.96  50.5 132  C 50.5 144.04  41.04 153.5  29 153.5  C 16.96 153.5  7.5 144.04  7.5 132  C 7.5 119.96  16.96 110.5  29 110.5  Z " stroke-width="1" stroke="#797979" fill="none" />
  </g>
</svg>