<?xml version="1.0" encoding="utf-8"?>
<svg version="1.1" xmlns:xlink="http://www.w3.org/1999/xlink" width="14px" height="20px" xmlns="http://www.w3.org/2000/svg">
  <g transform="matrix(1 0 0 1 -15 -520 )">
    <path d="M 14 6.66666666666669  C 14 2.99000000000001  10.859625 0  7 0  C 3.140375 0  0 2.99000000000001  0 6.66666666666669  C 0 10.2033333333334  6.363 19.4225  6.635125 19.8125  C 6.715625 19.9291666666667  6.853 20  7 20  C 7.147 20  7.2835 19.9291666666667  7.364875 19.8125  C 7.636125 19.4225  14 10.2033333333334  14 6.66666666666669  Z M 10.0625 6.66666666666669  C 10.0625 8.27499999999998  8.68875 9.58333333333331  7 9.58333333333331  C 5.31125 9.58333333333331  3.9375 8.27499999999998  3.9375 6.66666666666669  C 3.9375 5.05833333333334  5.31125 3.75  7 3.75  C 8.68875 3.75  10.0625 5.05833333333334  10.0625 6.66666666666669  Z " fill-rule="nonzero" fill="#000000" stroke="none" transform="matrix(1 0 0 1 15 520 )" />
  </g>
</svg>