<?xml version="1.0" encoding="utf-8"?>
<svg version="1.1" xmlns:xlink="http://www.w3.org/1999/xlink" width="43px" height="43px" xmlns="http://www.w3.org/2000/svg">
  <g transform="matrix(1 0 0 1 -24 0 )">
    <path d="M 33.3138020833333 17.9166666666666  C 33.3138020833333 18.4019097222222  33.1365017361111 18.8218315972222  32.7819010416667 19.1764322916666  L 20.9680989583333 30.990234375  C 20.6134982638889 31.3448350694445  20.1935763888889 31.5221354166666  19.7083333333333 31.5221354166666  C 19.2230902777778 31.5221354166666  18.8031684027778 31.3448350694445  18.4485677083333 30.990234375  L 10.2180989583333 22.759765625  C 9.86349826388891 22.4051649305555  9.68619791666669 21.9852430555555  9.68619791666669 21.5  C 9.68619791666669 21.0147569444445  9.86349826388891 20.5948350694445  10.2180989583333 20.240234375  L 13.0735677083333 17.384765625  C 13.4281684027778 17.0301649305555  13.8480902777778 16.8528645833334  14.3333333333333 16.8528645833334  C 14.8185763888889 16.8528645833334  15.2384982638889 17.0301649305555  15.5930989583333 17.384765625  L 19.7083333333333 21.5  L 27.4069010416667 13.8014322916666  C 27.7615017361111 13.4468315972222  28.1814236111111 13.26953125  28.6666666666667 13.26953125  C 29.1519097222222 13.26953125  29.5718315972222 13.4468315972222  29.9264322916667 13.8014322916666  L 32.7819010416667 16.6569010416666  C 33.1365017361111 17.0115017361111  33.3138020833333 17.4314236111111  33.3138020833333 17.9166666666666  Z M 34.685546875 29.142578125  C 36.0479600694445 26.8096788194445  36.7291666666667 24.2621527777778  36.7291666666667 21.5  C 36.7291666666667 18.7378472222222  36.0479600694445 16.1903211805555  34.685546875 13.857421875  C 33.3231336805555 11.5245225694445  31.4754774305555 9.67686631944446  29.142578125 8.314453125  C 26.8096788194445 6.95203993055554  24.2621527777778 6.27083333333337  21.5 6.27083333333337  C 18.7378472222222 6.27083333333337  16.1903211805556 6.95203993055554  13.857421875 8.314453125  C 11.5245225694445 9.67686631944446  9.67686631944446 11.5245225694445  8.314453125 13.857421875  C 6.95203993055557 16.1903211805555  6.27083333333334 18.7378472222222  6.27083333333334 21.5  C 6.27083333333334 24.2621527777778  6.95203993055557 26.8096788194445  8.314453125 29.142578125  C 9.67686631944446 31.4754774305555  11.5245225694445 33.3231336805555  13.857421875 34.685546875  C 16.1903211805556 36.0479600694445  18.7378472222222 36.7291666666666  21.5 36.7291666666666  C 24.2621527777778 36.7291666666666  26.8096788194445 36.0479600694445  29.142578125 34.685546875  C 31.4754774305555 33.3231336805555  33.3231336805555 31.4754774305555  34.685546875 29.142578125  Z M 40.1165364583334 10.7080078125  C 42.0388454861111 14.0020616319445  43 17.5993923611111  43 21.5  C 43 25.4006076388889  42.0388454861111 28.9979383680555  40.1165364583334 32.2919921875  C 38.1942274305555 35.5860460069445  35.5860460069445 38.1942274305555  32.2919921875 40.1165364583334  C 28.9979383680555 42.0388454861111  25.4006076388889 43  21.5 43  C 17.5993923611111 43  14.0020616319445 42.0388454861111  10.7080078125 40.1165364583334  C 7.41395399305557 38.1942274305555  4.80577256944446 35.5860460069445  2.88346354166669 32.2919921875  C 0.961154513888914 28.9979383680555  0 25.4006076388889  0 21.5  C 0 17.5993923611111  0.961154513888914 14.0020616319445  2.88346354166669 10.7080078125  C 4.80577256944446 7.41395399305554  7.41395399305557 4.80577256944446  10.7080078125 2.88346354166663  C 14.0020616319445 0.961154513888914  17.5993923611111 0  21.5 0  C 25.4006076388889 0  28.9979383680555 0.961154513888914  32.2919921875 2.88346354166663  C 35.5860460069445 4.80577256944446  38.1942274305555 7.41395399305554  40.1165364583334 10.7080078125  Z " fill-rule="nonzero" fill="#ffffff" stroke="none" transform="matrix(1 0 0 1 24 0 )" />
  </g>
</svg>