<?xml version="1.0" encoding="utf-8"?>
<svg version="1.1" xmlns:xlink="http://www.w3.org/1999/xlink" width="35px" height="30px" xmlns="http://www.w3.org/2000/svg">
  <g transform="matrix(1 0 0 1 -33 -228 )">
    <path d="M 13.7903645833333 13.6388221153846  C 14.8172743055556 12.6231971153846  16.0538194444444 12.1153846153846  17.5 12.1153846153846  C 18.9461805555556 12.1153846153846  20.1827256944444 12.6231971153846  21.2096354166667 13.6388221153846  C 22.2365451388889 14.6544471153846  22.75 15.8774038461538  22.75 17.3076923076923  C 22.75 18.7379807692308  22.2365451388889 19.9609375  21.2096354166667 20.9765625  C 20.1827256944444 21.9921875  18.9461805555556 22.5  17.5 22.5  C 16.0538194444444 22.5  14.8172743055556 21.9921875  13.7903645833333 20.9765625  C 12.7634548611111 19.9609375  12.25 18.7379807692308  12.25 17.3076923076923  C 12.25 15.8774038461538  12.7634548611111 14.6544471153846  13.7903645833333 13.6388221153846  Z M 26.25 4.61538461538461  L 30.3333333333333 4.61538461538461  C 31.6215277777778 4.61538461538461  32.7213541666667 5.06610576923077  33.6328125 5.96754807692307  C 34.5442708333333 6.86899038461539  35 7.95673076923077  35 9.23076923076923  L 35 25.3846153846154  C 35 26.6586538461539  34.5442708333333 27.7463942307692  33.6328125 28.6478365384615  C 32.7213541666667 29.5492788461539  31.6215277777778 30  30.3333333333333 30  L 4.66666666666667 30  C 3.37847222222222 30  2.27864583333333 29.5492788461539  1.3671875 28.6478365384615  C 0.455729166666668 27.7463942307692  0 26.6586538461539  0 25.3846153846154  L 0 9.23076923076923  C 0 7.95673076923077  0.455729166666668 6.86899038461539  1.3671875 5.96754807692307  C 2.27864583333333 5.06610576923077  3.37847222222222 4.61538461538461  4.66666666666667 4.61538461538461  L 8.75 4.61538461538461  L 9.6796875 2.16346153846155  C 9.91059027777778 1.57451923076923  10.3328993055556 1.06670673076923  10.9466145833333 0.640024038461547  C 11.5603298611111 0.21334134615384  12.1892361111111 0  12.8333333333333 0  L 22.1666666666667 0  C 22.8107638888889 0  23.4396701388889 0.21334134615384  24.0533854166667 0.640024038461547  C 24.6671006944444 1.06670673076923  25.0894097222222 1.57451923076923  25.3203125 2.16346153846155  L 26.25 4.61538461538461  Z M 11.73046875 23.0138221153846  C 13.3285590277778 24.5943509615385  15.2517361111111 25.3846153846154  17.5 25.3846153846154  C 19.7482638888889 25.3846153846154  21.6714409722222 24.5943509615385  23.26953125 23.0138221153846  C 24.8676215277778 21.4332932692308  25.6666666666667 19.53125  25.6666666666667 17.3076923076923  C 25.6666666666667 15.0841346153846  24.8676215277778 13.1820913461538  23.26953125 11.6015625  C 21.6714409722222 10.0210336538462  19.7482638888889 9.23076923076923  17.5 9.23076923076923  C 15.2517361111111 9.23076923076923  13.3285590277778 10.0210336538462  11.73046875 11.6015625  C 10.1323784722222 13.1820913461538  9.33333333333334 15.0841346153846  9.33333333333334 17.3076923076923  C 9.33333333333334 19.53125  10.1323784722222 21.4332932692308  11.73046875 23.0138221153846  Z " fill-rule="nonzero" fill="#000000" stroke="none" transform="matrix(1 0 0 1 33 228 )" />
  </g>
</svg>