<?xml version="1.0" encoding="utf-8"?>
<svg version="1.1" xmlns:xlink="http://www.w3.org/1999/xlink" width="80px" height="79px" xmlns="http://www.w3.org/2000/svg">
  <g transform="matrix(1 0 0 1 -10 -212 )">
    <path d="M 11 215  A 2 2 0 0 1 13 213 L 87 213  A 2 2 0 0 1 89 215 L 89 288  A 2 2 0 0 1 87 290 L 13 290  A 2 2 0 0 1 11 288 L 11 215  Z " fill-rule="nonzero" fill="#ffffff" stroke="none" />
    <path d="M 10.5 215  A 2.5 2.5 0 0 1 13 212.5 L 87 212.5  A 2.5 2.5 0 0 1 89.5 215 L 89.5 288  A 2.5 2.5 0 0 1 87 290.5 L 13 290.5  A 2.5 2.5 0 0 1 10.5 288 L 10.5 215  Z " stroke-width="1" stroke-dasharray="9,4" stroke="#797979" fill="none" stroke-dashoffset="0.5" />
  </g>
</svg>