<?xml version="1.0" encoding="utf-8"?>
<svg version="1.1" xmlns:xlink="http://www.w3.org/1999/xlink" width="29px" height="29px" xmlns="http://www.w3.org/2000/svg">
  <g transform="matrix(1 0 0 1 -179 -237 )">
    <path d="M 28.0181973684211 11.041945945946  C 28.2105131578948 10.8891081081081  28.2849210526316 10.624581081081  28.2059342105263 10.3882702702703  C 28.1246578947368 10.1519594594594  27.908302631579 9.99324324324325  27.6644736842105 9.99324324324325  L 18.3394473684211 9.99324324324325  L 15.0403157894737 0.392675675675618  C 14.9578947368421 0.157540540540607  14.7415394736842 0  14.5 0  C 14.2561710526316 0  14.0409605263158 0.157540540540607  13.9596842105263 0.392675675675618  L 10.660552631579 9.99324324324325  L 1.33552631578945 9.99324324324325  C 1.09169736842104 9.99324324324325  0.874197368421054 10.1519594594594  0.794065789473688 10.3882702702703  C 0.712789473684201 10.624581081081  0.789486842105248 10.8891081081081  0.981802631578925 11.0431216216217  L 8.67786842105265 17.2542162162161  L 5.37072368421054 27.4426216216217  C 5.29173684210525 27.6859864864865  5.37530263157893 27.9552162162162  5.57677631578949 28.104527027027  C 5.77825 28.2550135135135  6.05069736842104 28.2550135135135  6.25217105263156 28.1033513513514  L 14.5 21.8910810810811  L 22.7466842105263 28.101  C 22.8474210526316 28.1797702702703  22.9664736842106 28.2162162162163  23.0855263157895 28.2162162162163  C 23.2045789473685 28.2162162162163  23.3213421052632 28.1797702702703  23.4220789473684 28.1033513513514  C 23.624697368421 27.9516891891892  23.7071184210526 27.6859864864865  23.6292763157895 27.4414459459459  L 20.3209868421052 17.2530405405406  L 28.0181973684211 11.041945945946  Z " fill-rule="nonzero" fill="#000000" stroke="none" transform="matrix(1 0 0 1 179 237 )" />
  </g>
</svg>