<?xml version="1.0" encoding="utf-8"?>
<svg version="1.1" xmlns:xlink="http://www.w3.org/1999/xlink" width="29px" height="29px" xmlns="http://www.w3.org/2000/svg">
  <g transform="matrix(1 0 0 1 -308 -237 )">
    <path d="M 28.0181973684211 11.0431216216217  C 28.2105131578948 10.8891081081081  28.2849210526316 10.6257567567568  28.2059342105263 10.389445945946  C 28.1246578947368 10.1519594594594  27.908302631579 9.99324324324325  27.6644736842105 9.99324324324325  L 18.3394473684211 9.99324324324325  L 15.0414605263158 0.392675675675618  C 14.880052631579 -0.0775945945945864  14.1222368421053 -0.0775945945945864  13.9619736842106 0.392675675675618  L 10.6605526315789 9.99324324324325  L 1.33552631578945 9.99324324324325  C 1.09169736842104 9.99324324324325  0.874197368421054 10.1519594594594  0.794065789473643 10.389445945946  C 0.715078947368445 10.6257567567568  0.789486842105248 10.8891081081081  0.981802631578925 11.0442972972972  L 8.67786842105265 17.2542162162163  L 5.37072368421049 27.4426216216217  C 5.29288157894741 27.6859864864865  5.37530263157898 27.9528648648648  5.57677631578944 28.104527027027  C 5.77825 28.2538378378378  6.05184210526312 28.2550135135135  6.25331578947368 28.1021756756757  L 14.5 21.8910810810811  L 22.7466842105263 28.101  C 22.8474210526316 28.1785945945946  22.9664736842106 28.2162162162163  23.0855263157895 28.2162162162163  C 23.2045789473685 28.2162162162163  23.3224868421052 28.1785945945946  23.4232236842106 28.1033513513513  C 23.624697368421 27.9516891891892  23.7071184210527 27.6859864864865  23.6292763157895 27.4414459459459  L 20.3221315789474 17.2530405405406  L 28.0181973684211 11.0431216216217  Z M 26.0103289473684 11.1689189189189  L 19.2975921052632 16.5829054054054  C 19.1075657894737 16.7369189189189  19.0320131578947 16.9979189189189  19.1075657894737 17.2330540540541  L 21.9739868421052 26.0623783783784  L 14.8388421052631 20.6895405405405  C 14.7381052631579 20.6119459459459  14.6190526315789 20.5743243243244  14.5 20.5743243243244  C 14.3809473684211 20.5743243243244  14.2618947368421 20.6119459459459  14.1611578947369 20.6895405405405  L 7.02601315789475 26.0623783783784  L 9.89243421052633 17.2330540540541  C 9.96798684210525 16.9979189189189  9.89243421052633 16.7369189189189  9.7024078947368 16.5829054054054  L 2.98967105263159 11.1689189189189  L 11.0657894736842 11.1689189189189  C 11.3084736842106 11.1689189189189  11.5248289473684 11.0113783783784  11.6061052631579 10.7762432432432  L 14.5 2.35370270270264  L 17.39275 10.7762432432432  C 17.4763157894737 11.0113783783784  17.6915263157894 11.1689189189189  17.9342105263158 11.1689189189189  L 26.0103289473684 11.1689189189189  Z " fill-rule="nonzero" fill="#000000" stroke="none" transform="matrix(1 0 0 1 308 237 )" />
  </g>
</svg>