<?xml version="1.0" encoding="utf-8"?>
<svg version="1.1" xmlns:xlink="http://www.w3.org/1999/xlink" width="22px" height="20px" xmlns="http://www.w3.org/2000/svg">
  <g transform="matrix(1 0 0 1 -333 -34 )">
    <path d="M 21.7667410714286 6.6375  C 21.9222470238095 6.79583333333333  22 6.98333333333333  22 7.2  C 22 7.41666666666666  21.9222470238095 7.60416666666667  21.7667410714286 7.7625  L 15.4810267857143 14.1625  C 15.3255208333333 14.3208333333333  15.141369047619 14.4  14.9285714285714 14.4  C 14.7157738095238 14.4  14.5316220238095 14.3208333333333  14.3761160714286 14.1625  C 14.2206101190476 14.0041666666667  14.1428571428571 13.8166666666667  14.1428571428571 13.6  L 14.1428571428571 10.4  L 11.3928571428571 10.4  C 10.5907738095238 10.4  9.8725818452381 10.425  9.23828125 10.475  C 8.60398065476191 10.525  7.97377232142857 10.6145833333333  7.34765625 10.74375  C 6.72154017857143 10.8729166666667  6.1772693452381 11.05  5.71484375 11.275  C 5.25241815476191 11.5  4.82068452380952 11.7895833333333  4.41964285714286 12.14375  C 4.01860119047619 12.4979166666667  3.69122023809524 12.91875  3.4375 13.40625  C 3.18377976190476 13.89375  2.98530505952381 14.4708333333333  2.84207589285714 15.1375  C 2.69884672619048 15.8041666666667  2.62723214285714 16.5583333333333  2.62723214285714 17.4  C 2.62723214285714 17.8583333333333  2.64769345238095 18.3708333333333  2.68861607142857 18.9375  C 2.68861607142857 18.9875  2.69884672619048 19.0854166666667  2.71930803571429 19.23125  C 2.7397693452381 19.3770833333333  2.75 19.4875  2.75 19.5625  C 2.75 19.6875  2.71521577380952 19.7916666666667  2.64564732142857 19.875  C 2.57607886904762 19.9583333333333  2.47991071428571 20  2.35714285714286 20  C 2.22619047619048 20  2.11160714285714 19.9291666666667  2.01339285714286 19.7875  C 1.95610119047619 19.7125  1.90290178571429 19.6208333333333  1.85379464285714 19.5125  C 1.8046875 19.4041666666667  1.74944196428571 19.2791666666667  1.68805803571429 19.1375  C 1.62667410714286 18.9958333333333  1.58370535714286 18.8958333333333  1.55915178571429 18.8375  C 0.519717261904762 16.4625  0 14.5833333333333  0 13.2  C 0 11.5416666666667  0.216889880952381 10.1541666666667  0.650669642857143 9.0375  C 1.9765625 5.67916666666667  5.55729166666667 4  11.3928571428571 4  L 14.1428571428571 4  L 14.1428571428571 0.800000000000001  C 14.1428571428571 0.583333333333331  14.2206101190476 0.395833333333331  14.3761160714286 0.237499999999999  C 14.5316220238095 0.0791666666666657  14.7157738095238 0  14.9285714285714 0  C 15.141369047619 0  15.3255208333333 0.0791666666666657  15.4810267857143 0.237499999999999  L 21.7667410714286 6.6375  Z " fill-rule="nonzero" fill="#aaaaaa" stroke="none" transform="matrix(1 0 0 1 333 34 )" />
  </g>
</svg>