<?xml version="1.0" encoding="utf-8"?>
<svg version="1.1" xmlns:xlink="http://www.w3.org/1999/xlink" width="12px" height="12px" viewBox="1854 463  12 12" xmlns="http://www.w3.org/2000/svg">
  <path d="M 1860 463  C 1863.36 463  1866 465.64  1866 469  C 1866 472.36  1863.36 475  1860 475  C 1856.64 475  1854 472.36  1854 469  C 1854 465.64  1856.64 463  1860 463  Z " fill-rule="nonzero" fill="#ffffff" stroke="none" />
  <path d="M 1860 463.5  C 1863.08 463.5  1865.5 465.92  1865.5 469  C 1865.5 472.08  1863.08 474.5  1860 474.5  C 1856.92 474.5  1854.5 472.08  1854.5 469  C 1854.5 465.92  1856.92 463.5  1860 463.5  Z " stroke-width="1" stroke="#797979" fill="none" />
  <path d="M 1860 472  C 1858.32 472  1857 470.68  1857 469  C 1857 467.32  1858.32 466  1860 466  C 1861.68 466  1863 467.32  1863 469  C 1863 470.68  1861.68 472  1860 472  " fill-rule="nonzero" fill="#797979" stroke="none" />
</svg>